{
.appVersion = "3242";
.formatVersion = 3;
DisplayStrings = (
z
);
customParameters = (
{
name = panose;
value = (
0,
0,
0,
0,
0,
0,
0,
0,
0,
0
);
},
{
name = unicodeRanges;
value = (
0
);
},
{
name = fsType;
value = (
2
);
},
{
name = glyphOrder;
value = (
.notdef,
space,
exclam,
quotedbl,
numbersign,
dollar,
percent,
ampersand,
parenleft,
parenright,
asterisk,
plus,
comma,
hyphen,
period,
slash,
zero,
one,
two,
three,
four,
five,
six,
seven,
eight,
nine,
colon,
semicolon,
less,
equal,
greater,
question,
at,
A,
B,
C,
D,
E,
F,
G,
H,
I,
J,
K,
L,
M,
N,
O,
P,
Q,
R,
S,
T,
U,
V,
W,
X,
Y,
Z,
bracketleft,
backslash,
bracketright,
asciicircum,
underscore,
b,
f,
g,
i,
j,
l,
m,
t,
y,
z,
braceleft,
bar,
braceright,
asciitilde,
quotesingle,
endash,
grave,
tilde,
emdash,
trademark,
copyright,
uni00A0,
SignatureA
);
}
);
date = "2012-12-19 05:30:00 +0000";
familyName = SignatureJAIKI;
fontMaster = (
{
customParameters = (
{
name = underlinePosition;
value = -133;
},
{
name = underlineThickness;
value = 20;
}
);
id = m01;
metricValues = (
{
pos = 1130;
},
{
pos = 630;
},
{
pos = 480;
},
{
},
{
pos = -532;
}
);
name = Regular;
}
);
glyphs = (
{
glyphname = exclam;
layers = (
{
hints = (
{
horizontal = 1;
place = (-3,156);
type = Stem;
},
{
place = (104,172);
type = Stem;
}
);
layerId = m01;
shapes = (
{
closed = 1;
nodes = (
(276,102,ls),
(276,154,o),
(224,154,o),
(224,154,c),
(188,154,o),
(208,154,o),
(156,154,c),
(156,154,o),
(105,154,o),
(105,102,cs),
(105,50,ls),
(105,-2,o),
(156,-2,o),
(156,-2,c),
(180,-2,o),
(198,-2,o),
(224,-2,c),
(224,-2,o),
(276,-2,o),
(276,50,cs)
);
},
{
closed = 1;
nodes = (
(276,600,l),
(105,600,l),
(105,497,l),
(156,206,l),
(224,206,l),
(276,496,l)
);
}
);
width = 379;
}
);
note = exclam;
unicode = 33;
},
{
glyphname = quotedbl;
layers = (
{
hints = (
{
horizontal = 1;
place = (350,250);
type = Stem;
},
{
place = (312,171);
type = Stem;
},
{
place = (104,379);
type = Stem;
},
{
place = (104,172);
type = Stem;
}
);
layerId = m01;
shapes = (
{
closed = 1;
nodes = (
(276,600,l),
(105,600,l),
(105,590,l),
(156,351,l),
(224,351,l),
(276,548,l)
);
},
{
closed = 1;
nodes = (
(484,600,l),
(312,600,l),
(312,590,l),
(364,351,l),
(432,351,l),
(484,548,l)
);
}
);
width = 587;
}
);
note = quotedbl;
unicode = 34;
},
{
glyphname = numbersign;
layers = (
{
hints = (
{
horizontal = 1;
place = (357,103);
type = Stem;
},
{
horizontal = 1;
place = (133,104);
type = Stem;
},
{
place = (52,644);
type = Stem;
}
);
layerId = m01;
shapes = (
{
closed = 1;
nodes = (
(697,357,l),
(697,461,l),
(600,461,l),
(650,600,l),
(515,600,l),
(499,533,l),
(474,461,l),
(392,461,l),
(442,600,l),
(307,600,l),
(291,533,l),
(266,461,l),
(105,461,l),
(105,357,l),
(230,357,l),
(188,238,l),
(53,238,l),
(53,134,l),
(151,134,l),
(99,-2,l),
(234,-2,l),
(250,65,l),
(275,134,l),
(359,134,l),
(307,-2,l),
(442,-2,l),
(458,65,l),
(482,134,l),
(645,134,l),
(645,238,l),
(520,238,l),
(562,357,l)
);
},
{
closed = 1;
nodes = (
(395,238,l),
(312,238,l),
(355,357,l),
(437,357,l)
);
}
);
width = 753;
}
);
note = numbersign;
unicode = 35;
},
{
glyphname = dollar;
layers = (
{
hints = (
{
horizontal = 1;
place = (475,125);
type = Stem;
},
{
horizontal = 1;
place = (237,125);
type = Stem;
},
{
horizontal = 1;
place = (-3,125);
type = Stem;
},
{
place = (587,171);
type = Stem;
},
{
place = (327,161);
type = Stem;
},
{
place = (62,172);
type = Stem;
}
);
layerId = m01;
shapes = (
{
closed = 1;
nodes = (
(759,206,ls),
(759,280,o),
(730,362,o),
(588,362,cs),
(470,362,o),
(359,362,o),
(297,362,c),
(297,362,o),
(234,362,o),
(234,414,cs),
(234,424,ls),
(234,476,o),
(297,476,o),
(297,476,c),
(297,476,o),
(359,476,o),
(603,476,c),
(691,465,l),
(733,590,l),
(731,600,o),
(614,600,o),
(614,600,c),
(484,600,l),
(494,715,l),
(323,715,l),
(333,600,l),
(234,600,ls),
(63,600,o),
(63,486,o),
(63,434,cs),
(63,367,ls),
(63,299,o),
(115,238,o),
(234,238,cs),
(354,238,o),
(461,238,o),
(525,238,c),
(525,238,o),
(587,238,o),
(587,186,cs),
(587,174,ls),
(587,122,o),
(525,122,o),
(525,122,c),
(525,122,o),
(462,122,o),
(193,122,c),
(105,133,l),
(63,13,l),
(63,-2,o),
(183,-2,o),
(183,-2,c),
(333,-2,l),
(323,-116,l),
(494,-116,l),
(484,-2,l),
(588,-2,ls),
(758,-2,o),
(759,102,o),
(759,164,cs)
);
}
);
width = 815;
}
);
note = dollar;
unicode = 36;
},
{
glyphname = percent;
layers = (
{
hints = (
{
horizontal = 1;
place = (527,62);
type = Stem;
},
{
horizontal = 1;
place = (340,73);
type = Stem;
},
{
horizontal = 1;
place = (184,73);
type = Stem;
},
{
horizontal = 1;
place = (-13,73);
type = Stem;
},
{
place = (582,119);
type = Stem;
},
{
place = (462,45);
type = Stem;
},
{
place = (400,120);
type = Stem;
},
{
place = (247,54);
type = Stem;
},
{
place = (0,120);
type = Stem;
}
);
layerId = m01;
shapes = (
{
closed = 1;
nodes = (
(182,413,o),
(156,413,o),
(156,413,c),
(146,413,l),
(146,413,o),
(117,413,o),
(120,439,c),
(120,512,ls),
(120,538,o),
(147,538,o),
(147,538,c),
(156,538,l),
(156,538,o),
(182,538,o),
(182,512,cs),
(182,439,ls)
);
},
{
closed = 1;
nodes = (
(582,60,o),
(556,60,o),
(556,60,c),
(546,60,l),
(546,60,o),
(517,60,o),
(520,86,c),
(520,159,ls),
(520,185,o),
(546,185,o),
(546,185,c),
(556,185,l),
(556,185,o),
(582,185,o),
(582,159,cs),
(582,86,ls)
);
},
{
closed = 1;
nodes = (
(302,496,ls),
(302,548,o),
(297,611,o),
(182,611,cs),
(120,611,ls),
(1,611,o),
(1,548,o),
(1,496,cs),
(1,455,ls),
(1,392,o),
(5,341,o),
(120,341,cs),
(182,341,ls),
(297,341,o),
(302,392,o),
(302,455,cs)
);
},
{
closed = 1;
nodes = (
(463,590,l),
(447,533,l),
(131,76,l),
(94,-2,l),
(250,-2,l),
(266,65,l),
(588,528,l),
(614,590,l)
);
},
{
closed = 1;
nodes = (
(702,143,ls),
(702,195,o),
(697,257,o),
(582,257,cs),
(520,257,ls),
(401,257,o),
(401,195,o),
(401,143,cs),
(401,102,ls),
(401,39,o),
(405,-13,o),
(520,-13,cs),
(582,-13,ls),
(697,-13,o),
(702,39,o),
(702,102,cs)
);
},
{
closed = 1;
nodes = (
(507,590,l),
(352,590,o),
(300,590,o),
(300,590,c),
(300,590,o),
(274,590,o),
(248,600,c),
(248,528,l),
(507,528,l)
);
}
);
width = 702;
}
);
note = percent;
unicode = 37;
},
{
glyphname = ampersand;
layers = (
{
hints = (
{
horizontal = 1;
place = (485,125);
type = Stem;
},
{
horizontal = 1;
place = (249,101);
type = Stem;
},
{
horizontal = 1;
place = (-13,125);
type = Stem;
},
{
place = (666,160);
type = Stem;
},
{
place = (545,156);
type = Stem;
},
{
place = (270,173);
type = Stem;
},
{
place = (104,172);
type = Stem;
}
);
layerId = m01;
shapes = (
{
closed = 1;
nodes = (
(701,169,l),
(705,173,o),
(738,205,o),
(764,232,c),
(764,232,o),
(800,269,o),
(800,310,cs),
(800,352,l),
(630,352,l),
(630,220,l),
(572,220,o),
(508,285,o),
(409,384,cs),
(367,426,o),
(391,476,o),
(432,476,cs),
(442,476,l),
(442,476,o),
(494,476,o),
(494,429,cs),
(494,377,l),
(650,444,l),
(650,455,ls),
(650,507,o),
(650,600,o),
(478,600,cs),
(390,600,ls),
(249,600,o),
(219,522,o),
(219,470,cs),
(219,465,ls),
(219,403,o),
(267,372,o),
(278,361,c),
(272,351,l),
(267,351,ls),
(105,351,o),
(105,235,o),
(105,159,cs),
(105,154,ls),
(105,91,o),
(104,-2,o),
(276,-2,cs),
(369,-2,ls),
(508,-2,o),
(543,16,o),
(577,50,c),
(630,-4,o),
(710,-23,o),
(779,-23,c),
(779,-23,o),
(841,-23,o),
(847,-2,c),
(862,91,l),
(779,91,o),
(717,154,o),
(717,154,c)
);
},
{
closed = 1;
nodes = (
(338,122,l),
(338,122,o),
(276,122,o),
(276,174,cs),
(276,216,ls),
(276,274,o),
(347,280,o),
(390,238,c),
(394,233,o),
(406,221,o),
(410,217,c),
(410,217,o),
(455,172,o),
(497,130,c),
(496,122,o),
(411,122,o),
(411,122,c)
);
}
);
width = 956;
}
);
note = ampersand;
unicode = 38;
},
{
glyphname = parenleft;
layers = (
{
hints = (
{
horizontal = 1;
place = (-55,707);
type = Stem;
},
{
place = (99,125);
type = Stem;
}
);
layerId = m01;
shapes = (
{
closed = 1;
nodes = (
(224,-2,o),
(224,299,o),
(224,299,c),
(224,299,o),
(224,600,o),
(286,600,c),
(276,652,l),
(105,652,o),
(99,361,o),
(99,299,cs),
(99,237,o),
(104,-54,o),
(276,-54,c),
(286,-2,l)
);
}
);
width = 390;
}
);
note = parenleft;
unicode = 40;
},
{
glyphname = parenright;
layers = (
{
hints = (
{
horizontal = 1;
place = (-55,707);
type = Stem;
},
{
place = (166,125);
type = Stem;
}
);
layerId = m01;
shapes = (
{
closed = 1;
nodes = (
(291,361,o),
(286,652,o),
(115,652,c),
(105,600,l),
(167,601,o),
(167,299,o),
(167,299,c),
(167,299,o),
(167,-3,o),
(105,-2,c),
(115,-54,l),
(287,-54,o),
(291,237,o),
(291,299,cs)
);
}
);
width = 390;
}
);
note = parenright;
unicode = 41;
},
{
glyphname = asterisk;
layers = (
{
hints = (
{
horizontal = 1;
place = (397,7);
type = Stem;
},
{
place = (281,7);
type = Stem;
}
);
layerId = m01;
shapes = (
{
closed = 1;
nodes = (
(287,403,l),
(272,401,l),
(224,361,l),
(152,323,l),
(130,275,l),
(214,214,l),
(253,250,l),
(266,330,l),
(289,388,l)
);
},
{
closed = 1;
nodes = (
(280,418,l),
(226,451,l),
(169,508,l),
(116,514,l),
(84,415,l),
(130,389,l),
(210,401,l),
(273,397,l),
(286,404,l)
);
},
{
closed = 1;
nodes = (
(419,326,l),
(347,364,l),
(299,404,l),
(284,406,l),
(281,391,l),
(304,333,l),
(318,253,l),
(357,217,l),
(441,278,l)
);
},
{
closed = 1;
nodes = (
(338,600,l),
(234,600,l),
(224,548,l),
(260,476,l),
(276,415,l),
(286,405,l),
(297,415,l),
(312,476,l),
(349,548,l)
);
},
{
closed = 1;
nodes = (
(454,512,l),
(401,506,l),
(343,449,l),
(290,416,l),
(284,403,l),
(297,395,l),
(359,400,l),
(440,387,l),
(486,413,l)
);
}
);
width = 566;
}
);
note = asterisk;
unicode = 42;
},
{
glyphname = plus;
layers = (
{
hints = (
{
horizontal = 1;
place = (247,104);
type = Stem;
},
{
place = (260,124);
type = Stem;
}
);
layerId = m01;
shapes = (
{
closed = 1;
nodes = (
(530,352,l),
(385,352,l),
(385,496,l),
(260,496,l),
(260,352,l),
(115,352,l),
(115,248,l),
(260,248,l),
(260,102,l),
(385,102,l),
(385,248,l),
(530,248,l)
);
}
);
width = 644;
}
);
note = plus;
unicode = 43;
},
{
glyphname = comma;
layers = (
{
hints = (
{
horizontal = 1;
place = (-3,104);
type = Stem;
},
{
horizontal = 1;
place = (-107,53);
type = Stem;
},
{
place = (198,93);
type = Stem;
}
);
layerId = m01;
shapes = (
{
closed = 1;
nodes = (
(292,-2,o),
(292,50,o),
(292,102,c),
(198,102,l),
(198,-2,l),
(198,-13,ls),
(198,-54,o),
(146,-54,o),
(146,-54,c),
(130,-54,l),
(120,-106,l),
(188,-106,ls),
(292,-106,o),
(292,-2,o),
(292,-2,c)
);
},
{
closed = 1;
nodes = (
(292,102,ls),
(292,154,o),
(240,154,o),
(240,154,c),
(204,154,o),
(224,154,o),
(172,154,c),
(172,154,o),
(120,154,o),
(120,102,cs),
(120,50,ls),
(120,-2,o),
(172,-2,o),
(172,-2,c),
(196,-2,o),
(213,-2,o),
(240,-2,c),
(240,-2,o),
(292,-2,o),
(292,50,cs)
);
}
);
width = 395;
}
);
note = comma;
unicode = 44;
},
{
glyphname = hyphen;
layers = (
{
hints = (
{
horizontal = 1;
place = (247,104);
type = Stem;
},
{
place = (114,416);
type = Stem;
}
);
layerId = m01;
shapes = (
{
closed = 1;
nodes = (
(530,352,l),
(115,352,l),
(115,248,l),
(530,248,l)
);
}
);
width = 644;
}
);
note = hyphen;
unicode = 45;
},
{
glyphname = period;
layers = (
{
hints = (
{
horizontal = 1;
place = (-3,156);
type = Stem;
},
{
place = (104,172);
type = Stem;
}
);
layerId = m01;
shapes = (
{
closed = 1;
nodes = (
(276,102,ls),
(276,154,o),
(224,154,o),
(224,154,c),
(188,154,o),
(208,154,o),
(156,154,c),
(156,154,o),
(105,154,o),
(105,102,cs),
(105,50,ls),
(105,-2,o),
(156,-2,o),
(156,-2,c),
(180,-2,o),
(198,-2,o),
(224,-2,c),
(224,-2,o),
(276,-2,o),
(276,50,cs)
);
}
);
width = 379;
}
);
note = period;
unicode = 46;
},
{
glyphname = slash;
layers = (
{
hints = (
{
horizontal = 1;
place = (-3,603);
type = Stem;
},
{
place = (146,348);
type = Stem;
}
);
layerId = m01;
shapes = (
{
closed = 1;
nodes = (
(489,600,l),
(359,600,l),
(343,533,l),
(156,-2,l),
(286,-2,l),
(302,65,l)
);
}
);
width = 597;
}
);
note = slash;
unicode = 47;
},
{
glyphname = zero;
layers = (
{
hints = (
{
horizontal = 1;
place = (475,125);
type = Stem;
},
{
horizontal = 1;
place = (-3,125);
type = Stem;
},
{
place = (587,171);
type = Stem;
},
{
place = (104,172);
type = Stem;
}
);
layerId = m01;
shapes = (
{
closed = 1;
nodes = (
(587,122,o),
(525,122,o),
(525,122,c),
(462,122,o),
(402,122,o),
(338,122,c),
(338,122,o),
(276,122,o),
(276,174,cs),
(276,424,ls),
(276,476,o),
(339,476,o),
(339,476,c),
(401,476,o),
(465,476,o),
(525,476,c),
(525,476,o),
(587,476,o),
(587,424,cs),
(587,174,ls)
);
},
{
closed = 1;
nodes = (
(759,434,ls),
(759,486,o),
(759,600,o),
(588,600,cs),
(276,600,ls),
(105,600,o),
(105,486,o),
(105,434,cs),
(105,164,ls),
(105,102,o),
(104,-2,o),
(276,-2,cs),
(588,-2,ls),
(758,-2,o),
(759,102,o),
(759,164,cs)
);
}
);
width = 862;
}
);
note = zero;
unicode = 48;
},
{
glyphname = one;
layers = (
{
hints = (
{
horizontal = 1;
place = (480,119);
type = Stem;
},
{
place = (156,171);
type = Stem;
}
);
layerId = m01;
shapes = (
{
closed = 1;
nodes = (
(328,600,l),
(266,600,o),
(146,600,o),
(146,600,c),
(146,600,o),
(27,600,o),
(27,585,c),
(68,476,l),
(156,486,l),
(156,-2,l),
(328,-2,l)
);
}
);
width = 436;
}
);
note = one;
unicode = 49;
},
{
glyphname = two;
layers = (
{
hints = (
{
horizontal = 1;
place = (475,125);
type = Stem;
},
{
horizontal = 1;
place = (-3,125);
type = Stem;
},
{
place = (561,172);
type = Stem;
}
);
layerId = m01;
shapes = (
{
closed = 1;
nodes = (
(728,133,l),
(603,122,l),
(331,122,l),
(279,112,l),
(279,156,o),
(308,173,o),
(465,213,cs),
(670,265,o),
(734,308,o),
(734,424,cs),
(734,434,ls),
(734,486,o),
(734,600,o),
(562,600,cs),
(223,600,l),
(223,600,o),
(105,600,o),
(104,585,c),
(145,465,l),
(234,475,l),
(375,475,o),
(437,475,o),
(499,475,c),
(499,475,o),
(562,475,o),
(562,423,cs),
(562,414,ls),
(562,403,o),
(559,377,o),
(504,356,cs),
(434,330,o),
(261,316,o),
(176,231,c),
(176,231,o),
(149,201,o),
(141,169,cs),
(99,-2,l),
(728,-2,l)
);
}
);
width = 831;
}
);
note = two;
unicode = 50;
},
{
glyphname = three;
layers = (
{
hints = (
{
horizontal = 1;
place = (475,125);
type = Stem;
},
{
horizontal = 1;
place = (429,8);
type = Stem;
},
{
horizontal = 1;
place = (246,115);
type = Stem;
},
{
horizontal = 1;
place = (-3,125);
type = Stem;
},
{
place = (561,172);
type = Stem;
}
);
layerId = m01;
shapes = (
{
closed = 1;
nodes = (
(734,429,o),
(734,444,o),
(734,434,cs),
(734,486,o),
(734,600,o),
(562,600,cs),
(223,600,l),
(223,600,o),
(105,600,o),
(104,585,c),
(145,465,l),
(234,475,l),
(375,475,o),
(437,475,o),
(499,475,c),
(499,475,o),
(562,475,o),
(562,423,cs),
(562,414,ls),
(562,362,o),
(499,362,o),
(499,362,c),
(312,362,l),
(312,247,l),
(499,247,l),
(499,247,o),
(562,247,o),
(562,195,cs),
(562,175,ls),
(562,123,o),
(499,123,o),
(499,123,c),
(499,123,o),
(437,123,o),
(193,122,c),
(105,133,l),
(62,13,l),
(64,-2,o),
(182,-2,o),
(182,-2,c),
(562,-2,ls),
(734,-2,o),
(734,112,o),
(734,164,cs),
(734,236,l),
(734,236,o),
(734,299,o),
(681,332,c),
(734,361,o),
(734,429,o),
(734,429,c)
);
}
);
width = 836;
}
);
note = three;
unicode = 51;
},
{
glyphname = four;
layers = (
{
hints = (
{
horizontal = 1;
place = (101,125);
type = Stem;
},
{
place = (462,172);
type = Stem;
}
);
layerId = m01;
shapes = (
{
closed = 1;
nodes = (
(754,237,l),
(634,226,l),
(634,611,l),
(421,611,l),
(229,403,l),
(53,216,l),
(53,91,l),
(156,102,l),
(463,102,l),
(463,-13,l),
(634,-13,l),
(634,102,l),
(676,102,l),
(676,102,o),
(794,102,o),
(795,112,c)
);
},
{
closed = 1;
nodes = (
(250,226,l),
(463,453,l),
(463,226,l)
);
}
);
width = 857;
}
);
note = four;
unicode = 52;
},
{
glyphname = five;
layers = (
{
hints = (
{
horizontal = 1;
place = (475,125);
type = Stem;
},
{
horizontal = 1;
place = (247,115);
type = Stem;
},
{
horizontal = 1;
place = (-3,125);
type = Stem;
},
{
place = (587,171);
type = Stem;
},
{
place = (104,172);
type = Stem;
}
);
layerId = m01;
shapes = (
{
closed = 1;
nodes = (
(276,352,l),
(276,476,l),
(614,476,l),
(702,465,l),
(702,600,l),
(614,600,l),
(105,600,l),
(105,238,l),
(208,248,l),
(525,248,l),
(525,248,o),
(587,248,o),
(587,196,cs),
(587,174,ls),
(587,122,o),
(525,122,o),
(525,122,c),
(525,122,o),
(462,122,o),
(193,122,c),
(105,133,l),
(63,13,l),
(63,-2,o),
(183,-2,o),
(183,-2,c),
(588,-2,ls),
(758,-2,o),
(759,102,o),
(759,164,cs),
(759,238,ls),
(759,312,o),
(705,362,o),
(588,362,cs),
(432,362,l)
);
}
);
width = 862;
}
);
note = five;
unicode = 53;
},
{
glyphname = six;
layers = (
{
hints = (
{
horizontal = 1;
place = (475,125);
type = Stem;
},
{
horizontal = 1;
place = (247,115);
type = Stem;
},
{
horizontal = 1;
place = (-3,125);
type = Stem;
},
{
place = (587,171);
type = Stem;
},
{
place = (104,171);
type = Stem;
}
);
layerId = m01;
shapes = (
{
closed = 1;
nodes = (
(587,122,o),
(525,122,o),
(525,122,c),
(374,122,o),
(338,122,o),
(338,122,c),
(338,122,o),
(276,122,o),
(276,174,cs),
(276,196,l),
(276,248,l),
(525,248,l),
(525,248,o),
(587,248,o),
(587,196,cs),
(587,174,ls)
);
},
{
closed = 1;
nodes = (
(759,238,ls),
(759,312,o),
(705,362,o),
(588,362,cs),
(432,362,l),
(276,352,l),
(276,424,ls),
(276,476,o),
(339,476,o),
(339,476,c),
(339,476,o),
(400,476,o),
(603,476,c),
(691,465,l),
(733,590,l),
(731,600,o),
(614,600,o),
(614,600,c),
(276,600,ls),
(105,600,o),
(105,486,o),
(105,434,cs),
(105,164,ls),
(105,102,o),
(105,-2,o),
(276,-2,cs),
(588,-2,ls),
(758,-2,o),
(759,102,o),
(759,164,cs)
);
}
);
width = 862;
}
);
note = six;
unicode = 54;
},
{
glyphname = seven;
layers = (
{
hints = (
{
horizontal = 1;
place = (475,125);
type = Stem;
},
{
place = (94,597);
type = Stem;
}
);
layerId = m01;
shapes = (
{
closed = 1;
nodes = (
(691,600,l),
(94,600,l),
(105,465,l),
(198,476,l),
(504,476,l),
(266,76,l),
(229,-13,l),
(437,-13,l),
(546,237,l),
(691,486,l)
);
}
);
width = 743;
}
);
note = seven;
unicode = 55;
},
{
glyphname = eight;
layers = (
{
hints = (
{
horizontal = 1;
place = (475,125);
type = Stem;
},
{
horizontal = 1;
place = (247,115);
type = Stem;
},
{
horizontal = 1;
place = (-3,125);
type = Stem;
},
{
place = (587,171);
type = Stem;
},
{
place = (571,172);
type = Stem;
},
{
place = (120,171);
type = Stem;
},
{
place = (104,171);
type = Stem;
}
);
layerId = m01;
shapes = (
{
closed = 1;
nodes = (
(587,122,o),
(525,122,o),
(525,122,c),
(364,122,o),
(338,122,o),
(338,122,c),
(338,122,o),
(276,122,o),
(276,174,cs),
(276,196,ls),
(276,248,o),
(338,248,o),
(338,248,c),
(525,248,l),
(525,248,o),
(587,248,o),
(587,196,cs),
(587,174,ls)
);
},
{
closed = 1;
nodes = (
(572,362,o),
(510,362,o),
(510,362,c),
(354,362,l),
(354,362,o),
(292,362,o),
(292,414,cs),
(292,424,ls),
(292,476,o),
(354,476,o),
(354,476,c),
(371,476,o),
(479,476,o),
(509,476,c),
(509,476,o),
(572,476,o),
(572,424,cs),
(572,414,ls)
);
},
{
closed = 1;
nodes = (
(759,221,l),
(759,221,o),
(759,299,o),
(707,326,c),
(743,361,o),
(743,419,o),
(743,419,c),
(743,419,o),
(743,487,o),
(743,434,cs),
(743,486,o),
(743,600,o),
(572,600,cs),
(292,600,ls),
(120,600,o),
(120,486,o),
(120,434,cs),
(120,487,o),
(120,419,o),
(120,419,c),
(120,419,o),
(120,361,o),
(156,326,c),
(105,299,o),
(105,221,o),
(105,221,c),
(105,164,ls),
(105,102,o),
(105,-2,o),
(276,-2,cs),
(588,-2,ls),
(759,-2,o),
(759,117,o),
(759,164,cs)
);
}
);
width = 862;
}
);
note = eight;
unicode = 56;
},
{
glyphname = nine;
layers = (
{
hints = (
{
horizontal = 1;
place = (475,125);
type = Stem;
},
{
horizontal = 1;
place = (247,115);
type = Stem;
},
{
horizontal = 1;
place = (-3,125);
type = Stem;
},
{
place = (587,171);
type = Stem;
},
{
place = (104,172);
type = Stem;
}
);
layerId = m01;
shapes = (
{
closed = 1;
nodes = (
(338,362,l),
(338,362,o),
(276,362,o),
(276,414,cs),
(276,424,ls),
(276,476,o),
(339,476,o),
(339,476,c),
(525,476,l),
(525,476,o),
(587,476,o),
(587,424,cs),
(587,414,l),
(587,362,l)
);
},
{
closed = 1;
nodes = (
(759,434,ls),
(759,486,o),
(759,600,o),
(587,600,cs),
(276,600,ls),
(105,600,o),
(105,486,o),
(105,434,cs),
(105,378,ls),
(105,310,o),
(156,248,o),
(276,248,cs),
(432,248,l),
(587,258,l),
(587,196,l),
(587,174,ls),
(587,122,o),
(525,122,o),
(525,122,c),
(525,122,o),
(462,122,o),
(250,122,c),
(162,133,l),
(120,13,l),
(120,-2,o),
(240,-2,o),
(240,-2,c),
(588,-2,ls),
(758,-2,o),
(759,91,o),
(759,154,cs)
);
}
);
width = 862;
}
);
note = nine;
unicode = 57;
},
{
glyphname = colon;
layers = (
{
hints = (
{
horizontal = 1;
place = (340,156);
type = Stem;
},
{
horizontal = 1;
place = (-3,156);
type = Stem;
},
{
place = (104,172);
type = Stem;
}
);
layerId = m01;
shapes = (
{
closed = 1;
nodes = (
(276,102,ls),
(276,154,o),
(224,154,o),
(224,154,c),
(188,154,o),
(208,154,o),
(156,154,c),
(156,154,o),
(105,154,o),
(105,102,cs),
(105,50,ls),
(105,-2,o),
(156,-2,o),
(156,-2,c),
(180,-2,o),
(198,-2,o),
(224,-2,c),
(224,-2,o),
(276,-2,o),
(276,50,cs)
);
},
{
closed = 1;
nodes = (
(276,444,ls),
(276,496,o),
(224,496,o),
(224,496,c),
(188,496,o),
(208,496,o),
(156,496,c),
(156,496,o),
(105,496,o),
(105,444,cs),
(105,393,ls),
(105,341,o),
(156,341,o),
(156,341,c),
(180,341,o),
(198,341,o),
(224,341,c),
(224,341,o),
(276,341,o),
(276,393,cs)
);
}
);
width = 379;
}
);
note = colon;
unicode = 58;
},
{
glyphname = semicolon;
layers = (
{
hints = (
{
horizontal = 1;
place = (340,156);
type = Stem;
},
{
horizontal = 1;
place = (-107,260);
type = Stem;
},
{
place = (138,138);
type = Stem;
},
{
place = (104,34);
type = Stem;
}
);
layerId = m01;
shapes = (
{
closed = 1;
nodes = (
(53,102,l),
(105,50,l),
(105,50,o),
(182,-27,o),
(105,-106,c),
(172,-106,ls),
(276,-106,o),
(276,50,o),
(276,50,c),
(276,102,ls),
(276,154,o),
(224,154,o),
(224,154,c),
(224,154,o),
(173,154,o),
(89,154,c)
);
},
{
closed = 1;
nodes = (
(182,-27,o),
(105,50,o),
(105,50,c),
(53,102,l),
(89,154,l),
(173,154,o),
(224,154,o),
(224,154,c),
(224,154,o),
(276,154,o),
(276,102,cs),
(276,50,l),
(276,50,o),
(276,-106,o),
(172,-106,cs),
(105,-106,l)
);
},
{
closed = 1;
nodes = (
(224,154,o),
(173,154,o),
(89,154,c),
(53,102,l),
(105,50,l),
(105,50,o),
(182,-27,o),
(105,-106,c),
(172,-106,ls),
(276,-106,o),
(276,50,o),
(276,50,c),
(276,102,ls),
(276,154,o),
(224,154,o),
(224,154,c)
);
},
{
closed = 1;
nodes = (
(276,444,ls),
(276,496,o),
(224,496,o),
(224,496,c),
(188,496,o),
(208,496,o),
(156,496,c),
(156,496,o),
(105,496,o),
(105,444,cs),
(105,393,ls),
(105,341,o),
(156,341,o),
(156,341,c),
(180,341,o),
(198,341,o),
(224,341,c),
(224,341,o),
(276,341,o),
(276,393,cs)
);
}
);
width = 379;
}
);
note = semicolon;
unicode = 59;
},
{
glyphname = less;
layers = (
{
hints = (
{
horizontal = 1;
place = (101,395);
type = Stem;
},
{
place = (104,260);
type = Stem;
}
);
layerId = m01;
shapes = (
{
closed = 1;
nodes = (
(364,231,l),
(203,299,l),
(364,367,l),
(364,496,l),
(105,351,l),
(105,247,l),
(364,102,l)
);
}
);
width = 467;
}
);
note = less;
unicode = 60;
},
{
glyphname = equal;
layers = (
{
hints = (
{
horizontal = 1;
place = (357,103);
type = Stem;
},
{
horizontal = 1;
place = (133,104);
type = Stem;
},
{
place = (114,416);
type = Stem;
}
);
layerId = m01;
shapes = (
{
closed = 1;
nodes = (
(530,238,l),
(115,238,l),
(115,134,l),
(530,134,l)
);
},
{
closed = 1;
nodes = (
(530,461,l),
(115,461,l),
(115,357,l),
(530,357,l)
);
}
);
width = 644;
}
);
note = equal;
unicode = 61;
},
{
glyphname = greater;
layers = (
{
hints = (
{
horizontal = 1;
place = (101,395);
type = Stem;
},
{
place = (104,260);
type = Stem;
}
);
layerId = m01;
shapes = (
{
closed = 1;
nodes = (
(364,351,l),
(105,496,l),
(105,367,l),
(266,299,l),
(105,231,l),
(105,102,l),
(364,247,l)
);
}
);
width = 467;
}
);
note = greater;
unicode = 62;
},
{
glyphname = question;
layers = (
{
hints = (
{
horizontal = 1;
place = (485,115);
type = Stem;
},
{
horizontal = 1;
place = (247,115);
type = Stem;
},
{
horizontal = 1;
place = (-3,156);
type = Stem;
},
{
place = (551,171);
type = Stem;
},
{
place = (296,172);
type = Stem;
}
);
layerId = m01;
shapes = (
{
closed = 1;
nodes = (
(468,102,ls),
(468,154,o),
(416,154,o),
(416,154,c),
(380,154,o),
(401,154,o),
(349,154,c),
(349,154,o),
(297,154,o),
(297,102,cs),
(297,50,ls),
(297,-2,o),
(349,-2,o),
(349,-2,c),
(372,-2,o),
(390,-2,o),
(416,-2,c),
(416,-2,o),
(468,-2,o),
(468,50,cs)
);
},
{
closed = 1;
nodes = (
(723,434,ls),
(723,486,o),
(723,600,o),
(551,600,cs),
(276,600,l),
(276,600,o),
(158,600,o),
(156,585,c),
(198,476,l),
(286,486,l),
(426,486,o),
(427,486,o),
(488,486,c),
(488,486,o),
(551,486,o),
(551,434,cs),
(551,414,ls),
(551,362,o),
(489,362,o),
(489,362,c),
(432,362,ls),
(301,362,o),
(302,289,o),
(302,248,c),
(364,226,l),
(377,248,o),
(442,248,o),
(442,248,c),
(551,248,ls),
(671,248,o),
(723,336,o),
(723,404,cs)
);
}
);
width = 826;
}
);
note = question;
unicode = 63;
},
{
glyphname = at;
layers = (
{
hints = (
{
horizontal = 1;
place = (532,78);
type = Stem;
},
{
horizontal = 1;
place = (350,90);
type = Stem;
},
{
horizontal = 1;
place = (148,76);
type = Stem;
},
{
horizontal = 1;
place = (-13,78);
type = Stem;
},
{
place = (680,104);
type = Stem;
},
{
place = (478,104);
type = Stem;
},
{
place = (307,103);
type = Stem;
},
{
place = (104,104);
type = Stem;
}
);
layerId = m01;
shapes = (
{
closed = 1;
nodes = (
(328,611,ls),
(156,611,o),
(105,507,o),
(105,392,cs),
(105,180,ls),
(105,81,o),
(156,-13,o),
(328,-13,cs),
(488,-13,o),
(593,-13,o),
(593,-13,c),
(593,-13,o),
(697,-13,o),
(697,-2,c),
(655,76,l),
(603,65,l),
(323,65,l),
(323,65,o),
(208,65,o),
(208,169,cs),
(208,429,ls),
(208,533,o),
(323,533,o),
(323,533,c),
(567,533,l),
(567,533,o),
(681,533,o),
(681,429,cs),
(681,261,ls),
(681,211,o),
(582,213,o),
(582,263,c),
(582,263,o),
(582,310,o),
(582,440,c),
(530,440,l),
(504,440,ls),
(497,440,o),
(401,440,o),
(401,440,c),
(401,440,o),
(347,440,o),
(369,440,c),
(369,440,o),
(307,440,o),
(307,388,c),
(307,388,o),
(307,314,o),
(307,211,cs),
(307,148,o),
(369,148,o),
(369,148,c),
(416,148,ls),
(510,148,o),
(526,180,o),
(530,185,c),
(550,138,o),
(619,138,o),
(619,138,c),
(655,138,l),
(655,138,o),
(785,138,o),
(785,257,cs),
(785,392,ls),
(785,507,o),
(728,611,o),
(582,611,cs)
);
},
{
closed = 1;
nodes = (
(478,237,l),
(411,237,l),
(411,361,l),
(478,361,l)
);
}
);
width = 888;
}
);
note = at;
unicode = 64;
},
{
glyphname = A;
layers = (
{
hints = (
{
horizontal = 1;
place = (0,149);
type = Stem;
},
{
place = (29,1200);
type = Stem;
}
);
layerId = m01;
shapes = (
{
closed = 1;
nodes = (
(297,237,l),
(422,496,l),
(557,237,l)
);
},
{
closed = 1;
nodes = (
(811,76,l),
(536,600,l),
(308,600,l),
(256,496,l),
(53,76,l),
(22,-2,l),
(198,-2,l),
(251,122,l),
(603,122,l),
(660,-2,l),
(847,-2,l)
);
}
);
width = 852;
}
);
note = A;
unicode = 65;
},
{
glyphname = B;
layers = (
{
hints = (
{
horizontal = 1;
place = (475,125);
type = Stem;
},
{
horizontal = 1;
place = (247,115);
type = Stem;
},
{
horizontal = 1;
place = (-3,125);
type = Stem;
},
{
place = (629,171);
type = Stem;
},
{
place = (603,171);
type = Stem;
},
{
place = (104,171);
type = Stem;
}
);
layerId = m01;
shapes = (
{
closed = 1;
nodes = (
(629,122,o),
(567,122,o),
(567,122,c),
(567,122,o),
(505,122,o),
(276,122,c),
(276,248,l),
(503,248,o),
(567,248,o),
(567,248,c),
(567,248,o),
(629,248,o),
(629,196,cs),
(629,174,ls)
);
},
{
closed = 1;
nodes = (
(603,419,o),
(603,362,o),
(541,362,cs),
(276,362,l),
(276,476,l),
(541,476,ls),
(603,476,o),
(603,419,o),
(603,419,c)
);
},
{
closed = 1;
nodes = (
(800,212,l),
(800,212,o),
(800,299,o),
(733,331,c),
(775,361,o),
(775,425,o),
(775,425,c),
(775,434,ls),
(775,486,o),
(775,600,o),
(603,600,cs),
(94,600,l),
(105,496,l),
(105,-2,l),
(629,-2,ls),
(800,-2,o),
(800,102,o),
(800,164,cs)
);
}
);
width = 904;
}
);
note = B;
unicode = 66;
},
{
glyphname = C;
layers = (
{
hints = (
{
horizontal = 1;
place = (475,125);
type = Stem;
},
{
horizontal = 1;
place = (-3,125);
type = Stem;
},
{
place = (104,172);
type = Stem;
}
);
layerId = m01;
shapes = (
{
closed = 1;
nodes = (
(748,133,l),
(619,122,l),
(338,122,l),
(338,122,o),
(276,122,o),
(276,174,cs),
(276,424,ls),
(276,476,o),
(339,476,o),
(339,476,c),
(619,476,l),
(733,465,l),
(749,585,l),
(749,600,o),
(629,600,o),
(629,600,c),
(276,600,ls),
(105,600,o),
(105,476,o),
(105,424,cs),
(105,164,ls),
(105,102,o),
(104,-2,o),
(276,-2,cs),
(800,-2,l)
);
}
);
width = 836;
}
);
note = C;
unicode = 67;
},
{
glyphname = D;
layers = (
{
hints = (
{
horizontal = 1;
place = (475,125);
type = Stem;
},
{
horizontal = 1;
place = (-3,125);
type = Stem;
},
{
place = (629,171);
type = Stem;
},
{
place = (104,171);
type = Stem;
}
);
layerId = m01;
shapes = (
{
closed = 1;
nodes = (
(629,122,o),
(567,122,o),
(567,122,c),
(567,122,o),
(505,122,o),
(276,122,c),
(276,476,l),
(506,476,o),
(567,476,o),
(567,476,c),
(567,476,o),
(629,476,o),
(629,424,cs),
(629,174,ls)
);
},
{
closed = 1;
nodes = (
(800,434,ls),
(800,486,o),
(800,600,o),
(629,600,cs),
(94,600,l),
(105,496,l),
(105,-2,l),
(629,-2,ls),
(800,-2,o),
(800,102,o),
(800,164,cs)
);
}
);
width = 904;
}
);
note = D;
unicode = 68;
},
{
glyphname = E;
layers = (
{
hints = (
{
horizontal = 1;
place = (475,125);
type = Stem;
},
{
horizontal = 1;
place = (247,115);
type = Stem;
},
{
horizontal = 1;
place = (-3,125);
type = Stem;
},
{
place = (104,171);
type = Stem;
}
);
layerId = m01;
shapes = (
{
closed = 1;
nodes = (
(749,133,l),
(619,122,l),
(276,122,l),
(276,247,l),
(593,247,l),
(593,373,l),
(437,362,l),
(276,362,l),
(276,476,l),
(619,476,l),
(733,465,l),
(743,600,l),
(94,600,l),
(105,496,l),
(105,-2,l),
(489,-2,o),
(645,-2,o),
(645,-2,c),
(645,-2,o),
(800,-2,o),
(800,8,c)
);
}
);
width = 852;
}
);
note = E;
unicode = 69;
},
{
glyphname = F;
layers = (
{
hints = (
{
horizontal = 1;
place = (475,125);
type = Stem;
},
{
horizontal = 1;
place = (236,115);
type = Stem;
},
{
place = (104,172);
type = Stem;
}
);
layerId = m01;
shapes = (
{
closed = 1;
nodes = (
(94,600,l),
(105,496,l),
(105,-2,l),
(274,-2,l),
(276,-2,l),
(276,237,l),
(593,237,l),
(593,362,l),
(437,352,l),
(276,352,l),
(276,476,l),
(619,476,l),
(733,465,l),
(733,600,l)
);
}
);
width = 836;
}
);
note = F;
unicode = 70;
},
{
glyphname = G;
layers = (
{
hints = (
{
horizontal = 1;
place = (475,125);
type = Stem;
},
{
horizontal = 1;
place = (232,119);
type = Stem;
},
{
horizontal = 1;
place = (-3,125);
type = Stem;
},
{
place = (629,171);
type = Stem;
},
{
place = (104,172);
type = Stem;
}
);
layerId = m01;
shapes = (
{
closed = 1;
nodes = (
(499,352,l),
(499,227,l),
(629,238,l),
(629,122,l),
(400,122,o),
(338,122,o),
(338,122,c),
(338,122,o),
(276,122,o),
(276,174,cs),
(276,424,ls),
(276,476,o),
(339,476,o),
(339,476,c),
(339,476,o),
(401,476,o),
(645,476,c),
(754,465,l),
(769,585,ls),
(770,600,o),
(655,600,o),
(655,600,c),
(655,600,o),
(541,600,o),
(276,600,cs),
(105,600,o),
(105,486,o),
(105,434,cs),
(105,164,ls),
(105,102,o),
(104,-2,o),
(276,-2,cs),
(800,-2,l),
(800,102,l),
(800,248,l),
(811,352,l)
);
}
);
width = 904;
}
);
note = G;
unicode = 71;
},
{
glyphname = H;
layers = (
{
hints = (
{
horizontal = 1;
place = (247,114);
type = Stem;
},
{
place = (597,172);
type = Stem;
},
{
place = (104,172);
type = Stem;
}
);
layerId = m01;
shapes = (
{
closed = 1;
nodes = (
(598,600,l),
(598,497,l),
(598,361,l),
(276,361,l),
(276,361,o),
(276,498,o),
(276,600,c),
(105,600,l),
(105,-2,l),
(276,-2,l),
(276,237,l),
(598,237,l),
(598,-2,l),
(711,-2,o),
(769,-2,o),
(769,-2,c),
(769,-2,o),
(769,206,o),
(769,600,c)
);
}
);
width = 873;
}
);
note = H;
unicode = 72;
},
{
glyphname = I;
layers = (
{
hints = (
{
horizontal = 1;
place = (-3,603);
type = Stem;
},
{
place = (130,171);
type = Stem;
}
);
layerId = m01;
shapes = (
{
closed = 1;
nodes = (
(302,-2,o),
(302,206,o),
(302,600,c),
(120,600,l),
(130,497,l),
(130,-2,l),
(243,-2,o),
(302,-2,o),
(302,-2,c)
);
}
);
width = 431;
}
);
note = I;
unicode = 73;
},
{
glyphname = J;
layers = (
{
hints = (
{
horizontal = 1;
place = (799,-20);
target = down;
type = TopGhost;
},
{
horizontal = 1;
place = (714,85);
type = Stem;
},
{
horizontal = 1;
place = (0,165);
type = Stem;
},
{
place = (764,220);
type = Stem;
}
);
layerId = m01;
shapes = (
{
closed = 1;
nodes = (
(570,496,l),
(570,174,ls),
(570,122,o),
(518,122,o),
(518,122,c),
(518,122,o),
(504,122,o),
(230,122,c),
(147,133,l),
(71,14,l),
(70,-3,o),
(190,-3,o),
(190,-3,c),
(190,-3,o),
(241,-3,o),
(586,-3,cs),
(741,-3,o),
(742,102,o),
(742,153,cs),
(742,600,l),
(560,600,l)
);
}
);
width = 845;
}
);
note = J;
unicode = 74;
},
{
glyphname = K;
layers = (
{
hints = (
{
horizontal = 1;
place = (236,114);
type = Stem;
},
{
place = (104,172);
type = Stem;
}
);
layerId = m01;
shapes = (
{
closed = 1;
nodes = (
(748,86,o),
(680,154,o),
(680,154,c),
(581,253,l),
(581,253,o),
(518,317,o),
(482,320,c),
(567,361,l),
(753,548,l),
(779,600,l),
(582,600,l),
(333,351,l),
(276,351,l),
(276,600,l),
(94,600,l),
(105,496,l),
(105,-3,l),
(215,-2,o),
(276,-2,o),
(276,-2,c),
(276,237,l),
(297,237,ls),
(327,237,o),
(365,226,o),
(427,164,cs),
(536,54,ls),
(592,-2,o),
(671,-23,o),
(738,-23,c),
(738,-23,o),
(804,-23,o),
(811,-2,c),
(826,91,l)
);
}
);
width = 867;
}
);
note = K;
unicode = 75;
},
{
glyphname = L;
layers = (
{
hints = (
{
horizontal = 1;
place = (-3,125);
type = Stem;
},
{
place = (104,172);
type = Stem;
}
);
layerId = m01;
shapes = (
{
closed = 1;
nodes = (
(697,133,l),
(567,122,l),
(276,122,l),
(276,122,o),
(276,126,o),
(276,600,c),
(276,600,l),
(105,600,l),
(105,102,l),
(94,-2,l),
(749,-2,l)
);
}
);
width = 800;
}
);
note = L;
unicode = 76;
},
{
glyphname = M;
layers = (
{
hints = (
{
horizontal = 1;
place = (-3,603);
type = Stem;
},
{
place = (686,171);
type = Stem;
},
{
place = (88,172);
type = Stem;
}
);
layerId = m01;
shapes = (
{
closed = 1;
nodes = (
(858,600,l),
(697,600,l),
(473,304,l),
(260,600,l),
(79,600,l),
(89,496,l),
(89,-2,l),
(202,-2,o),
(260,-2,o),
(260,-2,c),
(260,-2,o),
(260,24,o),
(260,361,c),
(271,341,l),
(448,112,l),
(500,112,l),
(676,341,l),
(686,361,l),
(686,-2,l),
(858,-2,l),
(858,-2,l),
(858,-2,l)
);
}
);
width = 976;
}
);
note = M;
unicode = 77;
},
{
glyphname = N;
layers = (
{
hints = (
{
horizontal = 1;
place = (-3,603);
type = Stem;
},
{
place = (629,171);
type = Stem;
},
{
place = (104,172);
type = Stem;
}
);
layerId = m01;
shapes = (
{
closed = 1;
nodes = (
(629,600,l),
(629,216,l),
(551,304,l),
(266,600,l),
(94,600,l),
(105,496,l),
(105,-2,l),
(217,-2,o),
(276,-2,o),
(276,-2,c),
(276,-2,o),
(276,24,o),
(276,382,c),
(287,361,l),
(650,-2,l),
(800,-2,l),
(801,600,l)
);
}
);
width = 904;
}
);
note = N;
unicode = 78;
},
{
glyphname = O;
layers = (
{
hints = (
{
horizontal = 1;
place = (475,125);
type = Stem;
},
{
horizontal = 1;
place = (-3,125);
type = Stem;
},
{
place = (629,171);
type = Stem;
},
{
place = (104,172);
type = Stem;
}
);
layerId = m01;
shapes = (
{
closed = 1;
nodes = (
(629,122,o),
(567,122,o),
(567,122,c),
(503,122,o),
(402,122,o),
(338,122,c),
(338,122,o),
(276,122,o),
(276,174,cs),
(276,424,ls),
(276,476,o),
(339,476,o),
(339,476,c),
(401,476,o),
(506,476,o),
(567,476,c),
(567,476,o),
(629,476,o),
(629,424,cs),
(629,174,ls)
);
},
{
closed = 1;
nodes = (
(800,434,ls),
(800,486,o),
(800,600,o),
(629,600,cs),
(276,600,ls),
(105,600,o),
(105,486,o),
(105,434,cs),
(105,164,ls),
(105,102,o),
(104,-2,o),
(276,-2,cs),
(629,-2,ls),
(800,-2,o),
(800,102,o),
(800,164,cs)
);
}
);
width = 904;
}
);
note = O;
unicode = 79;
},
{
glyphname = P;
layers = (
{
hints = (
{
horizontal = 1;
place = (475,125);
type = Stem;
},
{
horizontal = 1;
place = (189,125);
type = Stem;
},
{
place = (629,171);
type = Stem;
},
{
place = (104,172);
type = Stem;
}
);
layerId = m01;
shapes = (
{
closed = 1;
nodes = (
(629,315,o),
(567,315,o),
(567,315,c),
(276,315,l),
(276,476,l),
(505,476,o),
(567,476,o),
(567,476,c),
(567,476,o),
(629,476,o),
(629,424,cs),
(629,367,ls)
);
},
{
closed = 1;
nodes = (
(800,434,ls),
(800,486,o),
(800,600,o),
(629,600,cs),
(94,600,l),
(105,496,l),
(105,-2,l),
(276,-2,l),
(276,200,l),
(432,190,l),
(629,190,ls),
(800,190,o),
(800,294,o),
(800,356,cs)
);
}
);
width = 852;
}
);
note = P;
unicode = 80;
},
{
glyphname = Q;
layers = (
{
hints = (
{
horizontal = 1;
place = (475,125);
type = Stem;
},
{
horizontal = 1;
place = (31,134);
type = Stem;
},
{
horizontal = 1;
place = (-13,125);
type = Stem;
},
{
place = (836,68);
type = Stem;
},
{
place = (629,171);
type = Stem;
},
{
place = (104,172);
type = Stem;
}
);
layerId = m01;
shapes = (
{
closed = 1;
nodes = (
(697,102,l),
(800,100,o),
(800,216,o),
(800,216,c),
(800,434,ls),
(800,486,o),
(800,600,o),
(629,600,cs),
(276,600,ls),
(105,600,o),
(105,486,o),
(105,434,cs),
(105,154,ls),
(105,91,o),
(104,-13,o),
(276,-13,cs),
(403,-13,l),
(465,50,o),
(537,39,o),
(578,-3,cs),
(619,-44,ls),
(674,-98,o),
(742,-116,o),
(821,-116,c),
(821,-116,o),
(888,-116,o),
(889,-101,c),
(904,-2,l),
(801,-3,o),
(749,50,o),
(749,50,c)
);
},
{
closed = 1;
nodes = (
(338,112,l),
(338,112,o),
(276,112,o),
(276,164,cs),
(276,424,ls),
(276,476,o),
(339,476,o),
(339,476,c),
(399,476,o),
(505,476,o),
(567,476,c),
(567,476,o),
(629,476,o),
(629,424,cs),
(629,266,o),
(629,211,o),
(629,211,c),
(629,211,o),
(629,156,o),
(577,159,c),
(504,177,o),
(430,157,o),
(385,112,c)
);
}
);
width = 904;
}
);
note = Q;
unicode = 81;
},
{
glyphname = R;
layers = (
{
hints = (
{
horizontal = 1;
place = (475,125);
type = Stem;
},
{
horizontal = 1;
place = (236,114);
type = Stem;
},
{
horizontal = 1;
place = (-23,114);
type = Stem;
},
{
place = (577,171);
type = Stem;
},
{
place = (104,172);
type = Stem;
}
);
layerId = m01;
shapes = (
{
closed = 1;
nodes = (
(577,351,o),
(478,351,o),
(478,351,c),
(276,351,l),
(276,476,l),
(453,476,o),
(515,476,o),
(515,476,c),
(515,476,o),
(577,476,o),
(577,424,cs),
(577,418,ls)
);
},
{
closed = 1;
nodes = (
(759,91,o),
(696,154,o),
(696,154,c),
(645,205,l),
(645,205,o),
(618,233,o),
(593,247,c),
(593,247,l),
(647,247,o),
(749,294,o),
(749,413,cs),
(749,444,ls),
(749,496,o),
(749,600,o),
(577,600,cs),
(94,600,l),
(105,496,l),
(105,-2,l),
(276,-2,l),
(276,237,l),
(297,237,ls),
(332,237,o),
(381,226,o),
(442,164,cs),
(556,50,ls),
(611,-5,o),
(690,-23,o),
(759,-23,c),
(759,-23,o),
(821,-23,o),
(827,-2,c),
(842,91,l)
);
}
);
width = 852;
}
);
note = R;
unicode = 82;
},
{
glyphname = S;
layers = (
{
hints = (
{
horizontal = 1;
place = (475,125);
type = Stem;
},
{
horizontal = 1;
place = (237,125);
type = Stem;
},
{
horizontal = 1;
place = (-3,125);
type = Stem;
},
{
place = (629,171);
type = Stem;
},
{
place = (104,172);
type = Stem;
}
);
layerId = m01;
shapes = (
{
closed = 1;
nodes = (
(800,206,ls),
(800,280,o),
(746,362,o),
(629,362,cs),
(512,362,o),
(400,362,o),
(338,362,c),
(338,362,o),
(276,362,o),
(276,414,cs),
(276,424,ls),
(276,476,o),
(339,476,o),
(339,476,c),
(339,476,o),
(400,476,o),
(645,476,cs),
(754,476,l),
(754,600,l),
(655,600,l),
(276,600,ls),
(105,600,o),
(105,486,o),
(105,434,cs),
(105,367,ls),
(105,299,o),
(156,238,o),
(276,238,cs),
(396,238,o),
(503,238,o),
(567,238,c),
(567,238,o),
(629,238,o),
(629,186,cs),
(629,174,ls),
(629,122,o),
(567,122,o),
(567,122,c),
(567,122,o),
(503,122,o),
(234,122,c),
(146,133,l),
(105,13,l),
(105,-2,o),
(224,-2,o),
(224,-2,c),
(629,-2,ls),
(800,-2,o),
(800,102,o),
(800,164,cs)
);
}
);
width = 904;
}
);
note = S;
unicode = 83;
},
{
glyphname = T;
layers = (
{
hints = (
{
horizontal = 1;
place = (475,125);
type = Stem;
},
{
place = (301,172);
type = Stem;
}
);
layerId = m01;
shapes = (
{
closed = 1;
nodes = (
(63,600,l),
(63,476,l),
(301,476,l),
(302,-2,l),
(473,-2,l),
(474,476,l),
(712,476,l),
(712,600,l)
);
}
);
width = 774;
}
);
note = T;
unicode = 84;
},
{
glyphname = U;
layers = (
{
hints = (
{
horizontal = 1;
place = (-3,125);
type = Stem;
},
{
place = (629,171);
type = Stem;
},
{
place = (104,172);
type = Stem;
}
);
layerId = m01;
shapes = (
{
closed = 1;
nodes = (
(800,600,l),
(629,600,l),
(629,247,o),
(629,185,o),
(629,185,c),
(629,185,o),
(629,122,o),
(577,122,cs),
(328,122,ls),
(276,122,o),
(276,185,o),
(276,185,c),
(276,185,o),
(276,245,o),
(276,600,c),
(105,600,l),
(105,164,ls),
(105,102,o),
(104,-2,o),
(276,-2,cs),
(629,-2,ls),
(800,-2,o),
(800,102,o),
(800,164,cs)
);
}
);
width = 904;
}
);
note = U;
unicode = 85;
},
{
glyphname = V;
layers = (
{
hints = (
{
horizontal = 1;
place = (800,-20);
target = down;
type = TopGhost;
},
{
horizontal = 1;
place = (634,166);
type = Stem;
},
{
horizontal = 1;
place = (627,173);
type = Stem;
},
{
place = (580,260);
type = Stem;
},
{
place = (0,237);
type = Stem;
}
);
layerId = m01;
shapes = (
{
closed = 1;
nodes = (
(624,600,l),
(472,247,l),
(432,154,l),
(392,247,l),
(229,600,l),
(47,600,l),
(84,522,l),
(328,-2,l),
(536,-2,l),
(780,522,l),
(801,600,l)
);
}
);
width = 867;
}
);
note = V;
unicode = 86;
},
{
glyphname = W;
layers = (
{
hints = (
{
horizontal = 1;
place = (-3,603);
type = Stem;
},
{
place = (52,1117);
type = Stem;
}
);
layerId = m01;
shapes = (
{
closed = 1;
nodes = (
(993,600,l),
(887,341,l),
(826,174,l),
(792,341,l),
(723,600,l),
(515,600,l),
(446,341,l),
(406,174,l),
(350,341,l),
(234,600,l),
(53,600,l),
(84,522,l),
(313,-2,l),
(494,-2,l),
(572,283,l),
(619,445,l),
(666,283,l),
(744,-2,l),
(926,-2,l),
(1148,522,l),
(1169,600,l)
);
}
);
width = 1236;
}
);
note = W;
unicode = 87;
},
{
glyphname = X;
layers = (
{
hints = (
{
horizontal = 1;
place = (-3,603);
type = Stem;
},
{
place = (52,769);
type = Stem;
}
);
layerId = m01;
shapes = (
{
closed = 1;
nodes = (
(759,76,l),
(603,257,l),
(552,299,l),
(603,341,l),
(785,522,l),
(821,600,l),
(614,600,l),
(437,392,l),
(260,600,l),
(53,600,l),
(115,522,l),
(271,341,l),
(322,299,l),
(271,257,l),
(89,76,l),
(53,-2,l),
(260,-2,l),
(437,206,l),
(614,-2,l),
(821,-2,l)
);
}
);
width = 878;
}
);
note = X;
unicode = 88;
},
{
glyphname = Y;
layers = (
{
hints = (
{
horizontal = 1;
place = (-3,603);
type = Stem;
},
{
place = (348,172);
type = Stem;
}
);
layerId = m01;
shapes = (
{
closed = 1;
nodes = (
(614,600,l),
(437,382,l),
(260,600,l),
(53,600,l),
(115,522,l),
(271,341,l),
(349,273,l),
(349,-2,l),
(520,-2,l),
(520,268,l),
(603,341,l),
(785,522,l),
(821,600,l)
);
}
);
width = 878;
}
);
note = Y;
unicode = 89;
},
{
glyphname = Z;
layers = (
{
hints = (
{
horizontal = 1;
place = (475,125);
type = Stem;
},
{
horizontal = 1;
place = (-3,125);
type = Stem;
},
{
place = (83,727);
type = Stem;
}
);
layerId = m01;
shapes = (
{
closed = 1;
nodes = (
(759,133,l),
(629,122,l),
(354,122,l),
(442,206,l),
(442,206,l),
(443,206,l),
(443,206,l),
(759,512,l),
(759,600,l),
(169,600,o),
(136,600,o),
(136,600,c),
(136,600,o),
(84,600,o),
(84,590,c),
(136,465,l),
(266,476,l),
(515,476,l),
(105,102,l),
(94,-2,l),
(707,-2,o),
(759,-2,o),
(759,-2,c),
(759,-2,o),
(811,-2,o),
(811,8,c)
);
}
);
width = 862;
}
);
note = Z;
unicode = 90;
},
{
glyphname = bracketleft;
layers = (
{
hints = (
{
horizontal = 1;
place = (652,52);
type = Stem;
},
{
horizontal = 1;
place = (-107,52);
type = Stem;
},
{
place = (99,125);
type = Stem;
}
);
layerId = m01;
shapes = (
{
closed = 1;
nodes = (
(99,-106,l),
(260,-106,l),
(260,-54,l),
(224,-54,l),
(224,652,l),
(260,652,l),
(260,704,l),
(99,704,l)
);
}
);
width = 364;
}
);
note = bracketleft;
unicode = 91;
},
{
glyphname = backslash;
layers = (
{
hints = (
{
horizontal = 1;
place = (-3,603);
type = Stem;
},
{
place = (104,348);
type = Stem;
}
);
layerId = m01;
shapes = (
{
closed = 1;
nodes = (
(297,65,l),
(312,-2,l),
(447,-2,l),
(255,533,l),
(240,600,l),
(105,600,l)
);
}
);
width = 597;
}
);
note = backslash;
unicode = 92;
},
{
glyphname = bracketright;
layers = (
{
hints = (
{
horizontal = 1;
place = (652,52);
type = Stem;
},
{
horizontal = 1;
place = (-107,52);
type = Stem;
},
{
place = (140,125);
type = Stem;
}
);
layerId = m01;
shapes = (
{
closed = 1;
nodes = (
(266,704,l),
(105,704,l),
(105,652,l),
(141,652,l),
(141,-54,l),
(105,-54,l),
(105,-106,l),
(266,-106,l)
);
}
);
width = 364;
}
);
note = bracketright;
unicode = 93;
},
{
glyphname = asciicircum;
layers = (
{
hints = (
{
horizontal = 1;
place = (392,234);
type = Stem;
},
{
place = (68,426);
type = Stem;
}
);
layerId = m01;
shapes = (
{
closed = 1;
nodes = (
(281,626,l),
(68,471,l),
(125,393,l),
(281,507,l),
(437,393,l),
(494,470,l)
);
}
);
width = 571;
}
);
note = asciicircum;
unicode = 94;
},
{
glyphname = underscore;
layers = (
{
hints = (
{
horizontal = 1;
place = (-2,104);
type = Stem;
},
{
place = (101,624);
type = Stem;
}
);
layerId = m01;
shapes = (
{
closed = 1;
nodes = (
(725,103,l),
(102,103,l),
(102,-1,l),
(725,-1,l)
);
}
);
width = 826;
}
);
note = underscore;
unicode = 95;
},
{
glyphname = b;
layers = (
{
hints = (
{
horizontal = 1;
place = (661,12);
type = Stem;
},
{
horizontal = 1;
place = (658,12);
type = Stem;
},
{
horizontal = 1;
place = (651,19);
type = Stem;
},
{
horizontal = 1;
place = (619,11);
type = Stem;
},
{
horizontal = 1;
place = (617,10);
type = Stem;
},
{
horizontal = 1;
place = (585,12);
type = Stem;
},
{
horizontal = 1;
place = (570,10);
type = Stem;
},
{
horizontal = 1;
place = (518,109);
type = Stem;
},
{
horizontal = 1;
place = (518,12);
type = Stem;
},
{
horizontal = 1;
place = (515,11);
type = Stem;
},
{
horizontal = 1;
place = (473,12);
type = Stem;
},
{
horizontal = 1;
place = (316,38);
type = Stem;
},
{
horizontal = 1;
place = (232,50);
type = Stem;
},
{
horizontal = 1;
place = (225,154);
type = Stem;
},
{
horizontal = 1;
place = (225,57);
type = Stem;
},
{
horizontal = 1;
place = (224,50);
type = Stem;
},
{
horizontal = 1;
place = (169,113);
type = Stem;
},
{
horizontal = 1;
place = (119,107);
type = Stem;
},
{
horizontal = 1;
place = (0,167);
type = Stem;
},
{
horizontal = 1;
place = (-7,72);
type = Stem;
},
{
horizontal = 1;
place = (-7,50);
type = Stem;
},
{
place = (1913,75);
type = Stem;
},
{
place = (1622,76);
type = Stem;
},
{
place = (1550,14);
type = Stem;
},
{
place = (1518,76);
type = Stem;
},
{
place = (1463,13);
type = Stem;
},
{
place = (1425,12);
type = Stem;
},
{
place = (1378,13);
type = Stem;
},
{
place = (1339,14);
type = Stem;
},
{
place = (1336,75);
type = Stem;
},
{
place = (1252,13);
type = Stem;
},
{
place = (1219,76);
type = Stem;
},
{
place = (1205,13);
type = Stem;
},
{
place = (1146,12);
type = Stem;
},
{
place = (1085,35);
type = Stem;
},
{
place = (1072,12);
type = Stem;
},
{
place = (1045,76);
type = Stem;
},
{
place = (1036,76);
type = Stem;
},
{
place = (1034,14);
type = Stem;
},
{
place = (947,13);
type = Stem;
},
{
place = (929,76);
type = Stem;
},
{
place = (917,14);
type = Stem;
},
{
place = (826,14);
type = Stem;
},
{
place = (747,76);
type = Stem;
},
{
place = (723,12);
type = Stem;
},
{
place = (649,12);
type = Stem;
},
{
place = (604,13);
type = Stem;
},
{
place = (519,14);
type = Stem;
},
{
place = (516,14);
type = Stem;
},
{
place = (502,154);
type = Stem;
},
{
place = (475,12);
type = Stem;
},
{
place = (442,76);
type = Stem;
},
{
place = (434,14);
type = Stem;
},
{
place = (432,13);
type = Stem;
},
{
place = (364,14);
type = Stem;
},
{
place = (334,83);
type = Stem;
},
{
place = (329,14);
type = Stem;
},
{
place = (319,81);
type = Stem;
},
{
place = (244,14);
type = Stem;
},
{
place = (209,15);
type = Stem;
},
{
place = (100,14);
type = Stem;
}
);
layerId = m01;
shapes = (
{
closed = 1;
nodes = (
(334,105,o),
(333,97,o),
(329,91,c),
(326,84,o),
(321,79,o),
(316,75,c),
(310,72,o),
(304,69,o),
(296,67,cs),
(289,66,o),
(281,65,o),
(273,65,cs),
(184,65,l),
(184,169,l),
(274,169,ls),
(292,169,o),
(307,165,o),
(318,157,cs),
(329,149,o),
(334,135,o),
(334,115,cs)
);
},
{
closed = 1;
nodes = (
(319,256,o),
(314,244,o),
(305,237,cs),
(295,230,o),
(283,226,o),
(268,226,cs),
(184,226,l),
(184,315,l),
(262,315,ls),
(269,315,o),
(276,314,o),
(283,313,cs),
(290,312,o),
(296,310,o),
(302,307,c),
(307,303,o),
(311,299,o),
(314,293,c),
(318,288,o),
(319,280,o),
(319,272,cs)
);
},
{
closed = 1;
nodes = (
(210,589,o),
(209,584,o),
(209,578,cs),
(208,573,o),
(206,567,o),
(205,562,cs),
(203,557,o),
(200,552,o),
(197,548,cs),
(194,544,o),
(189,540,o),
(184,538,cs),
(179,535,o),
(173,533,o),
(167,532,cs),
(161,531,o),
(155,531,o),
(149,531,cs),
(114,531,l),
(114,658,l),
(149,658,ls),
(155,658,o),
(161,658,o),
(168,657,cs),
(174,656,o),
(179,655,o),
(184,652,cs),
(189,650,o),
(193,646,o),
(197,642,c),
(200,637,o),
(203,633,o),
(205,628,cs),
(207,622,o),
(208,617,o),
(209,611,cs),
(209,606,o),
(210,600,o),
(210,595,cs)
);
},
{
closed = 1;
nodes = (
(518,167,l),
(518,173,o),
(520,179,o),
(521,185,cs),
(523,192,o),
(527,199,o),
(532,204,c),
(536,210,o),
(543,216,o),
(551,220,cs),
(559,224,o),
(569,226,o),
(581,226,cs),
(599,226,o),
(614,220,o),
(623,210,cs),
(632,201,o),
(639,186,o),
(641,167,c)
);
},
{
closed = 1;
nodes = (
(258,581,l),
(259,586,o),
(260,591,o),
(262,595,cs),
(264,600,o),
(266,604,o),
(269,608,cs),
(272,611,o),
(276,614,o),
(280,616,cs),
(284,618,o),
(289,619,o),
(295,619,cs),
(301,619,o),
(306,618,o),
(310,616,cs),
(314,614,o),
(318,611,o),
(321,608,cs),
(324,605,o),
(326,600,o),
(327,596,cs),
(329,591,o),
(330,586,o),
(330,581,c)
);
},
{
closed = 1;
nodes = (
(605,566,o),
(604,561,o),
(602,555,cs),
(600,549,o),
(598,545,o),
(595,540,cs),
(592,536,o),
(588,533,o),
(583,531,c),
(579,528,o),
(574,527,o),
(568,527,cs),
(561,527,o),
(555,528,o),
(551,531,c),
(546,533,o),
(542,537,o),
(539,541,cs),
(536,546,o),
(533,551,o),
(532,557,cs),
(531,563,o),
(530,570,o),
(530,576,cs),
(531,583,o),
(531,589,o),
(533,595,cs),
(535,600,o),
(538,604,o),
(541,608,cs),
(545,612,o),
(548,615,o),
(553,616,c),
(557,618,o),
(562,619,o),
(568,619,cs),
(574,619,o),
(579,618,o),
(584,616,c),
(588,613,o),
(592,610,o),
(595,606,cs),
(598,602,o),
(601,597,o),
(602,591,cs),
(604,585,o),
(605,579,o),
(605,573,cs)
);
},
{
closed = 1;
nodes = (
(1220,102,o),
(1219,97,o),
(1218,89,cs),
(1217,82,o),
(1215,75,o),
(1211,69,cs),
(1207,62,o),
(1201,56,o),
(1193,51,cs),
(1185,46,o),
(1174,43,o),
(1159,43,cs),
(1153,43,o),
(1147,44,o),
(1141,45,cs),
(1136,46,o),
(1131,48,o),
(1126,50,c),
(1122,53,o),
(1119,57,o),
(1116,61,c),
(1114,66,o),
(1113,72,o),
(1113,78,cs),
(1113,85,o),
(1114,91,o),
(1116,96,c),
(1119,100,o),
(1122,104,o),
(1126,107,cs),
(1130,110,o),
(1135,113,o),
(1140,114,cs),
(1146,116,o),
(1151,118,o),
(1157,119,cs),
(1163,120,o),
(1169,121,o),
(1175,121,cs),
(1181,122,o),
(1187,123,o),
(1192,124,cs),
(1198,125,o),
(1203,126,o),
(1208,128,cs),
(1212,130,o),
(1216,132,o),
(1220,135,c),
(1220,107,ls)
);
},
{
closed = 1;
nodes = (
(917,623,o),
(916,617,o),
(914,613,cs),
(912,609,o),
(909,606,o),
(906,604,cs),
(902,601,o),
(897,600,o),
(892,599,cs),
(887,598,o),
(881,598,o),
(874,598,cs),
(841,598,l),
(841,658,l),
(878,658,ls),
(892,658,o),
(902,656,o),
(908,651,cs),
(914,646,o),
(917,639,o),
(917,629,cs)
);
},
{
closed = 1;
nodes = (
(1035,567,o),
(1034,561,o),
(1033,556,cs),
(1031,551,o),
(1029,546,o),
(1026,541,cs),
(1023,537,o),
(1019,533,o),
(1015,531,cs),
(1010,528,o),
(1004,527,o),
(998,527,cs),
(992,527,o),
(986,528,o),
(982,530,cs),
(977,533,o),
(973,536,o),
(970,540,cs),
(967,544,o),
(965,549,o),
(963,554,cs),
(961,560,o),
(961,566,o),
(961,573,cs),
(961,579,o),
(961,585,o),
(963,590,c),
(964,596,o),
(966,601,o),
(969,605,cs),
(972,609,o),
(976,613,o),
(981,615,c),
(985,618,o),
(991,619,o),
(998,619,cs),
(1004,619,o),
(1010,618,o),
(1015,616,c),
(1019,613,o),
(1023,610,o),
(1026,606,cs),
(1029,602,o),
(1031,597,o),
(1033,591,cs),
(1034,586,o),
(1035,580,o),
(1035,573,cs)
);
},
{
closed = 1;
nodes = (
(1340,567,o),
(1339,561,o),
(1338,556,cs),
(1336,551,o),
(1334,546,o),
(1331,541,cs),
(1328,537,o),
(1324,533,o),
(1320,531,cs),
(1315,528,o),
(1309,527,o),
(1303,527,cs),
(1297,527,o),
(1291,528,o),
(1287,530,cs),
(1282,533,o),
(1278,536,o),
(1275,540,cs),
(1272,544,o),
(1270,549,o),
(1268,554,cs),
(1266,560,o),
(1266,566,o),
(1266,573,cs),
(1266,579,o),
(1266,585,o),
(1268,590,c),
(1269,596,o),
(1271,601,o),
(1274,605,cs),
(1277,609,o),
(1281,613,o),
(1286,615,c),
(1290,618,o),
(1296,619,o),
(1303,619,cs),
(1309,619,o),
(1315,618,o),
(1320,616,c),
(1324,613,o),
(1328,610,o),
(1331,606,cs),
(1334,602,o),
(1336,597,o),
(1338,591,cs),
(1339,586,o),
(1340,580,o),
(1340,573,cs)
);
},
{
closed = 1;
nodes = (
(1551,567,o),
(1550,561,o),
(1549,556,cs),
(1547,551,o),
(1545,546,o),
(1542,541,cs),
(1539,537,o),
(1535,533,o),
(1531,531,cs),
(1526,528,o),
(1520,527,o),
(1514,527,cs),
(1508,527,o),
(1502,528,o),
(1498,530,cs),
(1493,533,o),
(1489,536,o),
(1486,540,cs),
(1483,544,o),
(1481,549,o),
(1479,554,cs),
(1477,560,o),
(1477,566,o),
(1477,573,cs),
(1477,579,o),
(1477,585,o),
(1479,590,c),
(1480,596,o),
(1482,601,o),
(1485,605,cs),
(1488,609,o),
(1492,613,o),
(1497,615,c),
(1501,618,o),
(1507,619,o),
(1514,619,cs),
(1520,619,o),
(1526,618,o),
(1531,616,c),
(1535,613,o),
(1539,610,o),
(1542,606,cs),
(1545,602,o),
(1547,597,o),
(1549,591,cs),
(1550,586,o),
(1551,580,o),
(1551,573,cs)
);
},
{
closed = 1;
nodes = (
(1989,167,l),
(1989,173,o),
(1990,179,o),
(1992,185,cs),
(1994,192,o),
(1997,198,o),
(2002,204,cs),
(2007,210,o),
(2014,216,o),
(2022,220,cs),
(2030,224,o),
(2040,226,o),
(2052,226,cs),
(2070,226,o),
(2086,220,o),
(2095,210,cs),
(2104,201,o),
(2110,186,o),
(2112,167,c)
);
},
{
closed = 1;
nodes = (
(418,134,o),
(412,154,o),
(400,171,cs),
(389,188,o),
(372,200,o),
(348,207,c),
(365,215,o),
(378,225,o),
(387,238,cs),
(396,251,o),
(400,267,o),
(400,286,cs),
(400,303,o),
(397,318,o),
(391,330,cs),
(385,342,o),
(377,352,o),
(367,359,cs),
(356,366,o),
(343,372,o),
(328,375,cs),
(313,378,o),
(297,380,o),
(279,380,cs),
(100,380,l),
(100,0,l),
(284,0,ls),
(301,0,o),
(317,3,o),
(333,7,cs),
(350,11,o),
(364,18,o),
(377,26,cs),
(389,35,o),
(399,47,o),
(407,61,cs),
(414,75,o),
(418,91,o),
(418,111,cs)
);
},
{
closed = 1;
nodes = (
(718,141,o),
(716,161,o),
(711,181,cs),
(706,200,o),
(698,218,o),
(687,233,cs),
(676,248,o),
(661,260,o),
(644,269,cs),
(626,278,o),
(606,283,o),
(583,283,cs),
(562,283,o),
(543,279,o),
(526,272,cs),
(508,264,o),
(494,254,o),
(481,241,cs),
(469,228,o),
(459,213,o),
(452,195,cs),
(446,177,o),
(442,158,o),
(442,138,cs),
(442,116,o),
(446,97,o),
(452,79,cs),
(459,61,o),
(468,46,o),
(480,33,cs),
(492,20,o),
(507,11,o),
(524,4,cs),
(542,-3,o),
(561,-7,o),
(583,-7,cs),
(614,-7,o),
(641,1,o),
(662,15,cs),
(684,29,o),
(701,53,o),
(711,86,c),
(645,86,l),
(642,77,o),
(636,69,o),
(625,61,cs),
(614,54,o),
(601,50,o),
(585,50,cs),
(564,50,o),
(548,55,o),
(537,66,cs),
(525,77,o),
(518,98,o),
(518,120,c),
(716,120,l)
);
},
{
closed = 1;
nodes = (
(224,600,o),
(224,605,o),
(223,611,cs),
(222,617,o),
(221,623,o),
(219,629,cs),
(217,635,o),
(214,640,o),
(211,646,cs),
(208,651,o),
(204,655,o),
(199,659,cs),
(195,662,o),
(192,664,o),
(188,665,cs),
(184,667,o),
(180,668,o),
(176,669,cs),
(172,669,o),
(168,670,o),
(164,670,cs),
(160,670,o),
(156,670,o),
(152,670,cs),
(100,670,l),
(100,518,l),
(152,518,ls),
(157,518,o),
(162,519,o),
(167,519,cs),
(172,520,o),
(177,521,o),
(181,522,cs),
(186,523,o),
(190,525,o),
(194,528,cs),
(198,530,o),
(202,533,o),
(206,537,cs),
(209,541,o),
(212,545,o),
(215,550,cs),
(217,554,o),
(219,559,o),
(220,564,cs),
(222,569,o),
(223,574,o),
(223,579,cs),
(224,584,o),
(224,590,o),
(224,595,cs)
);
},
{
closed = 1;
nodes = (
(343,590,o),
(339,605,o),
(330,615,cs),
(322,626,o),
(310,631,o),
(295,631,cs),
(287,631,o),
(280,629,o),
(274,626,cs),
(268,623,o),
(263,619,o),
(258,614,c),
(254,608,o),
(251,602,o),
(248,595,cs),
(246,588,o),
(245,581,o),
(245,573,cs),
(245,565,o),
(246,557,o),
(248,550,cs),
(250,543,o),
(253,537,o),
(257,532,cs),
(261,527,o),
(266,523,o),
(272,520,cs),
(279,517,o),
(286,515,o),
(295,515,cs),
(302,515,o),
(308,516,o),
(313,518,cs),
(318,520,o),
(323,523,o),
(327,526,cs),
(331,529,o),
(334,533,o),
(336,537,cs),
(339,542,o),
(341,547,o),
(342,552,c),
(328,552,l),
(326,544,o),
(322,538,o),
(316,533,cs),
(310,529,o),
(303,527,o),
(295,527,cs),
(289,527,o),
(284,528,o),
(279,530,cs),
(274,533,o),
(271,536,o),
(267,540,cs),
(264,544,o),
(262,548,o),
(261,553,cs),
(259,559,o),
(258,564,o),
(258,570,c),
(343,570,l)
);
},
{
closed = 1;
nodes = (
(656,354,l),
(503,354,l),
(503,317,l),
(656,317,l)
);
},
{
closed = 1;
nodes = (
(448,554,o),
(447,560,o),
(443,564,cs),
(440,568,o),
(436,571,o),
(430,573,cs),
(425,575,o),
(419,577,o),
(413,579,cs),
(407,580,o),
(402,581,o),
(397,583,cs),
(391,585,o),
(387,587,o),
(384,589,cs),
(380,592,o),
(378,596,o),
(378,601,cs),
(378,606,o),
(380,611,o),
(385,614,c),
(389,618,o),
(395,619,o),
(403,619,cs),
(411,619,o),
(418,618,o),
(423,614,cs),
(428,611,o),
(432,605,o),
(433,596,c),
(446,596,l),
(444,609,o),
(440,617,o),
(432,623,cs),
(425,628,o),
(415,631,o),
(403,631,cs),
(391,631,o),
(382,628,o),
(375,622,cs),
(368,616,o),
(365,609,o),
(365,599,cs),
(365,592,o),
(367,587,o),
(370,583,cs),
(374,579,o),
(378,576,o),
(383,574,cs),
(388,572,o),
(394,570,o),
(400,569,cs),
(406,568,o),
(412,567,o),
(417,565,cs),
(422,564,o),
(426,562,o),
(430,559,cs),
(433,556,o),
(435,552,o),
(435,547,cs),
(435,544,o),
(434,542,o),
(433,539,cs),
(432,537,o),
(431,535,o),
(428,533,cs),
(426,531,o),
(423,530,o),
(420,529,c),
(417,527,o),
(413,527,o),
(408,527,cs),
(398,527,o),
(391,529,o),
(386,533,cs),
(381,537,o),
(377,543,o),
(375,553,c),
(362,553,l),
(363,547,o),
(364,543,o),
(366,538,cs),
(368,534,o),
(370,530,o),
(374,526,cs),
(377,523,o),
(382,520,o),
(387,518,cs),
(392,516,o),
(397,515,o),
(404,515,cs),
(410,515,o),
(416,516,o),
(422,517,c),
(427,519,o),
(432,521,o),
(436,523,cs),
(440,526,o),
(443,530,o),
(445,534,cs),
(447,537,o),
(448,542,o),
(448,547,cs)
);
},
{
closed = 1;
nodes = (
(488,628,l),
(475,628,l),
(475,518,l),
(488,518,l)
);
},
{
closed = 1;
nodes = (
(1005,169,ls),
(1005,186,o),
(1004,202,o),
(1001,216,cs),
(998,230,o),
(993,241,o),
(985,251,cs),
(978,261,o),
(968,269,o),
(955,274,cs),
(942,280,o),
(925,282,o),
(905,282,cs),
(891,282,o),
(876,279,o),
(862,271,cs),
(847,264,o),
(835,253,o),
(825,237,c),
(823,237,l),
(823,380,l),
(748,380,l),
(748,0,l),
(823,0,l),
(823,144,ls),
(823,172,o),
(828,192,o),
(837,204,cs),
(846,217,o),
(861,223,o),
(881,223,cs),
(899,223,o),
(912,217,o),
(919,206,cs),
(926,195,o),
(929,178,o),
(929,156,cs),
(929,0,l),
(1005,0,l)
);
},
{
closed = 1;
nodes = (
(617,628,l),
(605,628,l),
(605,609,l),
(604,609,l),
(602,612,o),
(600,615,o),
(597,618,cs),
(594,621,o),
(591,623,o),
(588,625,cs),
(584,627,o),
(581,628,o),
(577,629,cs),
(573,630,o),
(570,631,o),
(566,631,cs),
(557,631,o),
(550,629,o),
(544,626,cs),
(538,623,o),
(532,619,o),
(528,614,cs),
(524,609,o),
(521,603,o),
(520,596,cs),
(518,589,o),
(517,581,o),
(517,573,cs),
(517,566,o),
(518,558,o),
(520,551,cs),
(522,544,o),
(525,538,o),
(529,533,cs),
(533,528,o),
(538,523,o),
(544,520,cs),
(550,517,o),
(557,515,o),
(566,515,cs),
(573,515,o),
(581,517,o),
(588,521,cs),
(595,524,o),
(601,529,o),
(605,536,c),
(605,530,o),
(604,523,o),
(604,517,cs),
(603,511,o),
(601,506,o),
(599,501,cs),
(596,496,o),
(592,492,o),
(587,489,cs),
(582,487,o),
(575,485,o),
(566,485,cs),
(562,485,o),
(559,485,o),
(555,486,cs),
(552,486,o),
(548,487,o),
(545,489,cs),
(543,490,o),
(540,493,o),
(538,495,cs),
(536,498,o),
(534,501,o),
(533,505,c),
(520,505,l),
(520,502,o),
(521,498,o),
(523,495,cs),
(525,491,o),
(528,488,o),
(531,484,c),
(535,481,o),
(540,479,o),
(545,477,cs),
(551,475,o),
(558,474,o),
(566,474,cs),
(576,474,o),
(585,475,o),
(592,478,cs),
(598,481,o),
(603,485,o),
(607,490,cs),
(611,495,o),
(614,501,o),
(615,508,cs),
(617,515,o),
(617,522,o),
(617,529,cs)
);
},
{
closed = 1;
nodes = (
(489,670,l),
(475,670,l),
(475,652,l),
(489,652,l)
);
},
{
closed = 1;
nodes = (
(736,590,ls),
(736,594,o),
(736,599,o),
(735,603,cs),
(735,607,o),
(733,611,o),
(730,615,cs),
(727,621,o),
(722,625,o),
(716,627,cs),
(710,630,o),
(704,631,o),
(697,631,cs),
(690,631,o),
(683,629,o),
(678,626,cs),
(672,622,o),
(667,618,o),
(662,613,c),
(662,628,l),
(649,628,l),
(649,518,l),
(662,518,l),
(662,577,ls),
(662,581,o),
(662,585,o),
(662,588,c),
(663,591,o),
(663,594,o),
(665,598,cs),
(666,601,o),
(667,603,o),
(669,606,cs),
(671,609,o),
(673,611,o),
(675,613,cs),
(678,615,o),
(681,616,o),
(684,617,c),
(687,619,o),
(691,619,o),
(695,619,cs),
(705,619,o),
(712,617,o),
(717,612,cs),
(721,607,o),
(723,600,o),
(723,590,cs),
(723,518,l),
(736,518,l)
);
},
{
closed = 1;
nodes = (
(1303,6,o),
(1299,14,o),
(1297,26,cs),
(1296,37,o),
(1295,49,o),
(1295,61,cs),
(1295,204,ls),
(1295,221,o),
(1291,235,o),
(1284,245,cs),
(1277,255,o),
(1267,263,o),
(1255,268,cs),
(1244,274,o),
(1231,278,o),
(1217,280,cs),
(1202,282,o),
(1189,283,o),
(1175,283,cs),
(1159,283,o),
(1144,281,o),
(1129,278,cs),
(1114,275,o),
(1101,270,o),
(1089,263,cs),
(1077,256,o),
(1067,246,o),
(1059,235,cs),
(1051,223,o),
(1047,208,o),
(1046,191,c),
(1121,191,l),
(1123,206,o),
(1128,216,o),
(1136,223,cs),
(1145,229,o),
(1156,232,o),
(1171,232,cs),
(1178,232,o),
(1184,232,o),
(1190,231,cs),
(1196,230,o),
(1201,228,o),
(1205,226,cs),
(1209,223,o),
(1213,219,o),
(1215,215,cs),
(1218,210,o),
(1219,203,o),
(1220,195,cs),
(1220,187,o),
(1218,181,o),
(1213,177,cs),
(1208,173,o),
(1201,170,o),
(1192,168,cs),
(1184,166,o),
(1174,164,o),
(1163,163,cs),
(1152,162,o),
(1141,161,o),
(1130,159,cs),
(1119,157,o),
(1107,155,o),
(1096,152,cs),
(1085,149,o),
(1075,144,o),
(1066,138,cs),
(1058,132,o),
(1051,124,o),
(1045,114,cs),
(1040,104,o),
(1037,91,o),
(1037,75,cs),
(1037,61,o),
(1039,49,o),
(1044,38,cs),
(1049,28,o),
(1055,20,o),
(1064,13,cs),
(1072,6,o),
(1082,1,o),
(1094,-2,cs),
(1105,-5,o),
(1117,-7,o),
(1130,-7,cs),
(1147,-7,o),
(1164,-4,o),
(1180,1,cs),
(1196,6,o),
(1210,14,o),
(1222,27,c),
(1223,22,o),
(1223,18,o),
(1224,13,cs),
(1225,9,o),
(1227,4,o),
(1229,0,c),
(1306,0,l)
);
},
{
closed = 1;
nodes = (
(932,634,o),
(931,639,o),
(929,644,cs),
(928,649,o),
(925,654,o),
(922,658,cs),
(918,662,o),
(913,665,o),
(906,667,cs),
(900,669,o),
(892,670,o),
(882,670,cs),
(826,670,l),
(826,518,l),
(841,518,l),
(841,586,l),
(873,586,ls),
(880,586,o),
(887,586,o),
(894,587,cs),
(901,589,o),
(908,591,o),
(913,594,cs),
(919,597,o),
(923,602,o),
(926,607,cs),
(930,613,o),
(932,620,o),
(932,628,cs)
);
},
{
closed = 1;
nodes = (
(1048,581,o),
(1047,589,o),
(1045,596,cs),
(1043,603,o),
(1040,609,o),
(1036,614,cs),
(1032,619,o),
(1026,623,o),
(1020,626,cs),
(1014,629,o),
(1006,631,o),
(998,631,cs),
(989,631,o),
(982,629,o),
(976,626,cs),
(969,623,o),
(964,619,o),
(960,614,cs),
(955,609,o),
(952,603,o),
(950,596,cs),
(948,589,o),
(947,581,o),
(947,573,cs),
(947,564,o),
(948,555,o),
(951,548,cs),
(954,541,o),
(957,535,o),
(962,530,cs),
(967,525,o),
(972,522,o),
(978,519,cs),
(984,517,o),
(991,516,o),
(998,515,cs),
(1005,515,o),
(1012,517,o),
(1018,520,cs),
(1025,522,o),
(1030,526,o),
(1035,531,cs),
(1039,536,o),
(1042,542,o),
(1045,549,cs),
(1047,556,o),
(1048,564,o),
(1048,573,cs)
);
},
{
closed = 1;
nodes = (
(1595,169,ls),
(1595,186,o),
(1593,202,o),
(1590,216,cs),
(1587,230,o),
(1582,241,o),
(1574,251,cs),
(1567,261,o),
(1557,269,o),
(1544,274,cs),
(1531,279,o),
(1514,282,o),
(1494,282,cs),
(1478,282,o),
(1462,279,o),
(1447,271,cs),
(1432,264,o),
(1420,253,o),
(1410,237,c),
(1408,237,l),
(1408,275,l),
(1337,275,l),
(1337,0,l),
(1412,0,l),
(1412,144,ls),
(1412,172,o),
(1417,192,o),
(1426,204,cs),
(1435,217,o),
(1450,224,o),
(1470,224,cs),
(1489,224,o),
(1501,217,o),
(1508,206,cs),
(1515,195,o),
(1519,178,o),
(1519,156,cs),
(1519,0,l),
(1595,0,l)
);
},
{
closed = 1;
nodes = (
(1121,631,l),
(1112,631,o),
(1104,629,o),
(1099,626,cs),
(1093,622,o),
(1089,616,o),
(1085,607,c),
(1085,607,l),
(1085,628,l),
(1072,628,l),
(1072,518,l),
(1085,518,l),
(1085,572,ls),
(1085,578,o),
(1085,584,o),
(1086,589,cs),
(1087,595,o),
(1089,600,o),
(1092,604,cs),
(1095,608,o),
(1099,611,o),
(1103,614,c),
(1108,616,o),
(1114,617,o),
(1121,617,c)
);
},
{
closed = 1;
nodes = (
(1180,528,l),
(1179,528,o),
(1177,528,o),
(1175,527,c),
(1173,527,o),
(1172,527,o),
(1170,527,cs),
(1167,527,o),
(1165,527,o),
(1164,528,c),
(1162,528,o),
(1161,529,o),
(1160,530,c),
(1160,532,o),
(1159,533,o),
(1159,535,cs),
(1159,537,o),
(1159,540,o),
(1159,542,cs),
(1159,617,l),
(1179,617,l),
(1179,628,l),
(1159,628,l),
(1159,658,l),
(1146,658,l),
(1146,628,l),
(1131,628,l),
(1131,617,l),
(1146,617,l),
(1146,537,ls),
(1146,529,o),
(1148,523,o),
(1151,520,cs),
(1155,517,o),
(1159,515,o),
(1166,515,cs),
(1169,515,o),
(1172,516,o),
(1174,516,c),
(1177,517,o),
(1179,518,o),
(1180,518,c)
);
},
{
closed = 1;
nodes = (
(1240,628,l),
(1218,628,l),
(1218,641,ls),
(1218,644,o),
(1219,646,o),
(1219,649,cs),
(1219,651,o),
(1219,653,o),
(1220,655,cs),
(1221,657,o),
(1223,659,o),
(1224,660,cs),
(1226,661,o),
(1229,662,o),
(1232,662,cs),
(1234,662,o),
(1237,662,o),
(1240,661,c),
(1240,673,l),
(1238,673,o),
(1236,673,o),
(1234,673,cs),
(1233,673,o),
(1231,673,o),
(1229,673,cs),
(1221,673,o),
(1215,671,o),
(1211,666,cs),
(1208,661,o),
(1206,654,o),
(1206,645,cs),
(1206,628,l),
(1190,628,l),
(1190,617,l),
(1206,617,l),
(1206,518,l),
(1218,518,l),
(1218,617,l),
(1240,617,l)
);
},
{
closed = 1;
nodes = (
(1353,581,o),
(1352,589,o),
(1350,596,cs),
(1348,603,o),
(1345,609,o),
(1341,614,cs),
(1337,619,o),
(1331,623,o),
(1325,626,cs),
(1319,629,o),
(1311,631,o),
(1303,631,cs),
(1294,631,o),
(1287,629,o),
(1280,626,cs),
(1274,623,o),
(1269,619,o),
(1265,614,cs),
(1260,609,o),
(1257,603,o),
(1255,596,cs),
(1253,589,o),
(1252,581,o),
(1252,573,cs),
(1252,564,o),
(1253,555,o),
(1256,548,cs),
(1259,541,o),
(1262,535,o),
(1267,530,cs),
(1271,525,o),
(1277,522,o),
(1283,519,cs),
(1289,517,o),
(1296,516,o),
(1303,515,cs),
(1310,515,o),
(1317,517,o),
(1323,520,cs),
(1330,522,o),
(1335,526,o),
(1339,531,cs),
(1344,536,o),
(1347,542,o),
(1350,549,cs),
(1352,556,o),
(1353,564,o),
(1353,573,cs)
);
},
{
closed = 1;
nodes = (
(1821,105,l),
(1818,88,o),
(1812,75,o),
(1803,65,cs),
(1793,55,o),
(1779,50,o),
(1761,50,cs),
(1749,50,o),
(1739,52,o),
(1731,58,cs),
(1723,63,o),
(1717,70,o),
(1712,78,cs),
(1707,86,o),
(1703,96,o),
(1701,106,cs),
(1699,116,o),
(1698,127,o),
(1698,136,cs),
(1698,147,o),
(1699,157,o),
(1701,168,cs),
(1703,178,o),
(1707,188,o),
(1712,196,cs),
(1717,205,o),
(1724,212,o),
(1732,218,cs),
(1740,223,o),
(1750,226,o),
(1762,226,cs),
(1795,226,o),
(1813,210,o),
(1818,179,c),
(1892,179,l),
(1891,197,o),
(1887,212,o),
(1879,225,cs),
(1872,238,o),
(1862,248,o),
(1850,257,cs),
(1839,266,o),
(1825,272,o),
(1810,276,cs),
(1795,281,o),
(1779,283,o),
(1763,283,cs),
(1741,283,o),
(1721,279,o),
(1703,272,cs),
(1686,264,o),
(1671,254,o),
(1659,240,cs),
(1647,227,o),
(1638,211,o),
(1632,193,cs),
(1626,175,o),
(1622,155,o),
(1622,134,cs),
(1622,113,o),
(1626,94,o),
(1632,77,cs),
(1639,60,o),
(1649,45,o),
(1661,33,cs),
(1673,20,o),
(1687,11,o),
(1705,4,cs),
(1722,-3,o),
(1741,-7,o),
(1761,-7,cs),
(1798,-7,o),
(1828,3,o),
(1851,22,cs),
(1875,41,o),
(1889,69,o),
(1894,105,c)
);
},
{
closed = 1;
nodes = (
(1391,670,l),
(1378,670,l),
(1378,518,l),
(1391,518,l)
);
},
{
closed = 1;
nodes = (
(1438,628,l),
(1425,628,l),
(1425,518,l),
(1438,518,l)
);
},
{
closed = 1;
nodes = (
(1564,581,o),
(1563,589,o),
(1561,596,cs),
(1559,603,o),
(1556,609,o),
(1552,614,cs),
(1548,619,o),
(1542,623,o),
(1536,626,cs),
(1530,629,o),
(1522,631,o),
(1514,631,cs),
(1505,631,o),
(1498,629,o),
(1492,626,cs),
(1485,623,o),
(1480,619,o),
(1476,614,cs),
(1472,609,o),
(1468,603,o),
(1466,596,cs),
(1464,589,o),
(1463,581,o),
(1463,573,cs),
(1463,564,o),
(1464,555,o),
(1467,548,cs),
(1470,541,o),
(1473,535,o),
(1478,530,cs),
(1483,525,o),
(1488,522,o),
(1494,519,cs),
(1500,517,o),
(1507,516,o),
(1514,515,cs),
(1521,515,o),
(1528,517,o),
(1535,520,cs),
(1541,522,o),
(1546,526,o),
(1551,531,cs),
(1555,536,o),
(1558,542,o),
(1561,549,cs),
(1563,556,o),
(1564,564,o),
(1564,573,cs)
);
},
{
closed = 1;
nodes = (
(1439,670,l),
(1425,670,l),
(1425,652,l),
(1439,652,l)
);
},
{
closed = 1;
nodes = (
(2189,141,o),
(2187,161,o),
(2182,181,cs),
(2177,200,o),
(2169,218,o),
(2158,233,cs),
(2147,248,o),
(2133,260,o),
(2115,269,cs),
(2098,278,o),
(2077,283,o),
(2054,283,cs),
(2033,283,o),
(2014,279,o),
(1997,272,cs),
(1980,264,o),
(1965,254,o),
(1953,241,cs),
(1940,228,o),
(1930,213,o),
(1924,195,cs),
(1917,177,o),
(1914,158,o),
(1914,138,cs),
(1914,116,o),
(1917,97,o),
(1923,79,cs),
(1930,61,o),
(1939,46,o),
(1951,33,cs),
(1964,20,o),
(1978,11,o),
(1996,4,cs),
(2013,-3,o),
(2033,-7,o),
(2054,-7,cs),
(2085,-7,o),
(2112,1,o),
(2134,15,cs),
(2156,29,o),
(2172,53,o),
(2183,86,c),
(2116,86,l),
(2114,77,o),
(2107,69,o),
(2096,61,cs),
(2085,54,o),
(2072,50,o),
(2057,50,cs),
(2036,50,o),
(2018,55,o),
(2007,66,cs),
(1996,77,o),
(1989,98,o),
(1989,120,c),
(2188,120,l)
);
}
);
width = 2288;
}
);
note = b;
unicode = 98;
},
{
glyphname = f;
layers = (
{
hints = (
{
horizontal = 1;
place = (533,95);
type = Stem;
},
{
horizontal = 1;
place = (338,106);
type = Stem;
},
{
horizontal = 1;
place = (0,243);
type = Stem;
},
{
place = (630,97);
type = Stem;
},
{
place = (100,253);
type = Stem;
}
);
layerId = m01;
shapes = (
{
closed = 1;
nodes = (
(728,593,ls),
(728,613,o),
(713,628,o),
(693,628,cs),
(135,628,ls),
(116,628,o),
(100,613,o),
(100,593,cs),
(100,35,ls),
(100,15,o),
(116,0,o),
(135,0,cs),
(435,0,l),
(435,243,l),
(354,243,l),
(354,338,l),
(435,338,l),
(435,408,ls),
(435,489,o),
(485,533,o),
(557,533,cs),
(592,533,o),
(622,531,o),
(630,529,c),
(630,445,l),
(580,445,ls),
(541,445,o),
(533,426,o),
(533,399,cs),
(533,338,l),
(627,338,l),
(615,243,l),
(533,243,l),
(533,0,l),
(693,0,ls),
(713,0,o),
(728,15,o),
(728,35,cs)
);
}
);
width = 828;
}
);
note = f;
unicode = 102;
},
{
glyphname = i;
layers = (
{
hints = (
{
horizontal = 1;
place = (561,71);
type = Stem;
},
{
horizontal = 1;
place = (364,75);
type = Stem;
},
{
horizontal = 1;
place = (119,74);
type = Stem;
},
{
horizontal = 1;
place = (0,70);
type = Stem;
},
{
place = (661,70);
type = Stem;
},
{
place = (538,74);
type = Stem;
},
{
place = (219,74);
type = Stem;
},
{
place = (100,70);
type = Stem;
}
);
layerId = m01;
shapes = (
{
closed = 1;
nodes = (
(662,80,o),
(652,70,o),
(634,70,cs),
(489,70,o),
(343,70,o),
(198,70,cs),
(181,70,o),
(170,80,o),
(170,97,cs),
(170,184,o),
(170,272,o),
(170,359,cs),
(170,361,o),
(170,362,o),
(170,365,c),
(189,365,o),
(207,365,o),
(225,365,c),
(209,287,o),
(228,220,o),
(289,167,cs),
(327,133,o),
(373,117,o),
(425,120,cs),
(486,123,o),
(537,149,o),
(574,199,cs),
(610,248,o),
(620,304,o),
(607,365,c),
(625,365,o),
(643,365,o),
(662,365,c),
(662,362,o),
(662,360,o),
(662,358,cs),
(662,271,o),
(662,185,o),
(662,98,cs)
);
},
{
closed = 1;
nodes = (
(539,248,o),
(484,193,o),
(416,193,cs),
(348,194,o),
(293,248,o),
(293,316,cs),
(293,384,o),
(348,439,o),
(416,439,cs),
(484,438,o),
(539,384,o),
(539,316,cs)
);
},
{
closed = 1;
nodes = (
(662,449,o),
(651,439,o),
(635,439,cs),
(624,439,o),
(612,439,o),
(600,439,cs),
(588,439,o),
(576,439,o),
(564,439,cs),
(549,439,o),
(539,449,o),
(539,464,cs),
(539,488,o),
(539,512,o),
(539,536,cs),
(539,551,o),
(549,561,o),
(564,562,cs),
(588,562,o),
(612,562,o),
(636,562,cs),
(651,561,o),
(662,551,o),
(662,536,cs),
(662,512,o),
(662,489,o),
(662,465,cs)
);
},
{
closed = 1;
nodes = (
(732,561,ls),
(732,600,o),
(700,632,o),
(660,632,cs),
(171,632,ls),
(132,632,o),
(100,600,o),
(100,561,cs),
(100,71,ls),
(100,32,o),
(132,0,o),
(171,0,cs),
(660,0,ls),
(700,0,o),
(732,32,o),
(732,71,cs)
);
}
);
width = 832;
}
);
note = i;
unicode = 105;
},
{
glyphname = j;
layers = (
{
hints = (
{
horizontal = 1;
place = (568,42);
type = Stem;
},
{
horizontal = 1;
place = (417,183);
type = Stem;
},
{
horizontal = 1;
place = (269,29);
type = Stem;
},
{
horizontal = 1;
place = (-3,115);
type = Stem;
},
{
horizontal = 1;
place = (-3,104);
type = Stem;
},
{
place = (3797,52);
type = Stem;
},
{
place = (3616,52);
type = Stem;
},
{
place = (3468,52);
type = Stem;
},
{
place = (3147,171);
type = Stem;
},
{
place = (2301,171);
type = Stem;
},
{
place = (1890,171);
type = Stem;
},
{
place = (618,171);
type = Stem;
}
);
layerId = m01;
shapes = (
{
closed = 1;
nodes = (
(1498,102,o),
(1441,101,o),
(1325,102,cs),
(1216,102,o),
(1177,102,o),
(1128,112,c),
(1117,148,l),
(1117,148,o),
(1130,166,o),
(1308,426,c),
(1308,447,l),
(1315,451,l),
(1556,122,l),
(1556,112,l)
);
},
{
closed = 1;
nodes = (
(790,600,l),
(602,600,l),
(566,548,l),
(618,496,l),
(618,112,l),
(554,102,o),
(454,102,o),
(454,102,c),
(402,99,o),
(387,102,o),
(351,112,c),
(312,183,l),
(278,183,o),
(205,162,o),
(178,147,c),
(62,50,l),
(88,-2,l),
(488,-3,o),
(634,-3,o),
(634,-3,c),
(789,-3,o),
(790,50,o),
(790,101,cs)
);
},
{
closed = 1;
nodes = (
(1390,611,l),
(1247,611,l),
(1042,306,o),
(1021,270,o),
(1021,270,c),
(1029,252,o),
(1059,201,o),
(1065,188,c),
(1062,183,o),
(1061,179,o),
(1057,174,c),
(1043,171,o),
(994,163,o),
(953,147,c),
(840,49,l),
(866,-3,l),
(1762,-3,l),
(1788,49,l)
);
},
{
closed = 1;
nodes = (
(2062,-2,o),
(2062,206,o),
(2062,600,c),
(1875,600,l),
(1839,548,l),
(1891,497,l),
(1891,-2,l),
(2003,-2,o),
(2062,-2,o),
(2062,-2,c)
);
},
{
closed = 1;
nodes = (
(2763,600,l),
(2483,346,l),
(2472,346,l),
(2472,600,l),
(2301,600,l),
(2301,-3,l),
(2411,-2,o),
(2472,-2,o),
(2472,-2,c),
(2472,237,l),
(2524,237,l),
(2543,219,o),
(2702,60,o),
(2732,39,cs),
(2774,9,o),
(2799,-2,o),
(2882,-2,c),
(2882,-2,o),
(2962,-2,o),
(3017,-2,c),
(3017,49,l),
(3003,53,o),
(2960,78,o),
(2918,113,c),
(2918,113,o),
(2859,155,o),
(2694,299,c),
(2673,299,l),
(3022,600,l)
);
},
{
closed = 1;
nodes = (
(3319,-2,o),
(3319,206,o),
(3319,600,c),
(3132,600,l),
(3095,548,l),
(3147,497,l),
(3147,-2,l),
(3260,-2,o),
(3319,-2,o),
(3319,-2,c)
);
},
{
closed = 1;
nodes = (
(3559,600,l),
(3424,600,l),
(3393,600,l),
(3393,566,l),
(3427,569,l),
(3468,569,l),
(3468,566,l),
(3468,452,l),
(3468,449,l),
(3468,418,l),
(3469,418,l),
(3520,418,l),
(3520,418,l),
(3520,449,l),
(3520,452,l),
(3520,566,l),
(3520,569,l),
(3556,569,l),
(3590,566,l),
(3595,600,l)
);
},
{
closed = 1;
nodes = (
(3849,418,o),
(3849,481,o),
(3849,600,c),
(3805,600,l),
(3733,522,l),
(3660,600,l),
(3612,600,l),
(3616,585,l),
(3616,569,l),
(3616,566,l),
(3616,452,l),
(3616,418,l),
(3650,418,o),
(3668,418,o),
(3668,418,c),
(3668,426,o),
(3668,430,o),
(3668,452,cs),
(3668,526,l),
(3672,522,l),
(3733,457,l),
(3794,522,l),
(3797,526,l),
(3797,452,l),
(3797,418,l),
(3849,418,l),
(3849,418,l),
(3849,418,l)
);
}
);
width = 3947;
}
);
note = j;
unicode = 106;
},
{
glyphname = l;
layers = (
{
hints = (
{
horizontal = 1;
place = (545,87);
type = Stem;
},
{
horizontal = 1;
place = (395,41);
type = Stem;
},
{
horizontal = 1;
place = (0,93);
type = Stem;
},
{
place = (638,93);
type = Stem;
},
{
place = (439,105);
type = Stem;
},
{
place = (287,59);
type = Stem;
},
{
place = (100,93);
type = Stem;
}
);
layerId = m01;
shapes = (
{
closed = 1;
nodes = (
(194,93,l),
(194,395,l),
(287,395,l),
(287,93,l)
);
},
{
closed = 1;
nodes = (
(295,461,o),
(271,436,o),
(241,436,cs),
(210,436,o),
(186,461,o),
(186,491,cs),
(186,521,o),
(210,545,o),
(241,545,cs),
(271,545,o),
(295,521,o),
(295,491,cs)
);
},
{
closed = 1;
nodes = (
(545,93,l),
(545,240,ls),
(545,275,o),
(544,320,o),
(496,320,cs),
(447,320,o),
(440,282,o),
(440,243,cs),
(440,93,l),
(346,93,l),
(346,395,l),
(436,395,l),
(436,354,l),
(437,354,l),
(450,378,o),
(481,403,o),
(526,403,cs),
(621,403,o),
(639,340,o),
(639,259,cs),
(639,93,l)
);
},
{
closed = 1;
nodes = (
(732,586,ls),
(732,612,o),
(711,632,o),
(685,632,cs),
(147,632,ls),
(121,632,o),
(100,612,o),
(100,586,cs),
(100,46,ls),
(100,20,o),
(121,0,o),
(147,0,cs),
(685,0,ls),
(711,0,o),
(732,20,o),
(732,46,cs)
);
}
);
width = 832;
}
);
note = l;
unicode = 108;
},
{
glyphname = m;
layers = (
{
hints = (
{
horizontal = 1;
place = (572,56);
type = Stem;
},
{
horizontal = 1;
place = (389,85);
type = Stem;
},
{
horizontal = 1;
place = (382,96);
type = Stem;
},
{
horizontal = 1;
place = (371,111);
type = Stem;
},
{
horizontal = 1;
place = (102,141);
type = Stem;
},
{
horizontal = 1;
place = (22,74);
type = Stem;
},
{
horizontal = 1;
place = (11,123);
type = Stem;
},
{
horizontal = 1;
place = (-202,162);
type = Stem;
},
{
horizontal = 1;
place = (-288,198);
type = Stem;
},
{
horizontal = 1;
place = (-587,72);
type = Stem;
},
{
place = (4237,126);
type = Stem;
},
{
place = (3941,147);
type = Stem;
},
{
place = (3637,141);
type = Stem;
},
{
place = (3352,174);
type = Stem;
},
{
place = (3037,160);
type = Stem;
},
{
place = (2712,158);
type = Stem;
},
{
place = (2039,149);
type = Stem;
},
{
place = (1804,141);
type = Stem;
},
{
place = (1572,166);
type = Stem;
},
{
place = (1567,134);
type = Stem;
},
{
place = (1295,138);
type = Stem;
},
{
place = (1058,141);
type = Stem;
},
{
place = (1005,18);
type = Stem;
},
{
place = (814,135);
type = Stem;
},
{
place = (583,142);
type = Stem;
},
{
place = (104,94);
type = Stem;
}
);
layerId = m01;
shapes = (
{
closed = 1;
nodes = (
(2456,-111,o),
(2436,-143,o),
(2432,-154,c),
(2446,-157,o),
(2490,-149,o),
(2518,-149,cs),
(2565,-149,o),
(2569,-199,o),
(2553,-215,c),
(2529,-215,o),
(2481,-208,o),
(2417,-175,cs),
(2345,-138,o),
(2320,-132,o),
(2288,-132,cs),
(2271,-132,o),
(2254,-134,o),
(2241,-140,cs),
(2230,-145,o),
(2230,-152,o),
(2236,-156,cs),
(2253,-167,o),
(2271,-178,o),
(2316,-206,cs),
(2399,-258,o),
(2435,-267,o),
(2479,-267,cs),
(2564,-267,o),
(2642,-218,o),
(2642,-150,cs),
(2642,-72,o),
(2542,-48,o),
(2486,-90,cs)
);
},
{
closed = 1;
nodes = (
(2369,-271,o),
(2354,-283,o),
(2341,-296,cs),
(2328,-309,o),
(2321,-326,o),
(2321,-343,cs),
(2321,-370,o),
(2339,-397,o),
(2376,-397,cs),
(2402,-397,o),
(2424,-378,o),
(2424,-349,c),
(2421,-345,o),
(2412,-343,o),
(2396,-334,cs),
(2374,-323,o),
(2363,-296,o),
(2375,-271,c)
);
},
{
closed = 1;
nodes = (
(2105,68,o),
(2093,43,o),
(2120,8,cs),
(2152,-33,o),
(2063,23,o),
(2077,36,cs),
(2084,43,o),
(2090,67,o),
(2056,91,c),
(2083,96,o),
(2159,105,o),
(2135,68,c)
);
},
{
closed = 1;
nodes = (
(2301,390,l),
(2201,390,l),
(2201,342,l),
(2201,157,l),
(2186,141,o),
(2157,141,o),
(2157,141,c),
(2127,141,o),
(2102,157,o),
(2102,214,c),
(2102,214,o),
(2102,247,o),
(2102,338,c),
(2108,390,l),
(2009,390,l),
(2008,352,o),
(2008,319,o),
(2008,319,c),
(2008,301,o),
(2008,255,o),
(2008,215,cs),
(2008,110,o),
(2059,68,o),
(2135,68,cs),
(2172,68,o),
(2198,84,o),
(2203,89,c),
(2203,83,o),
(2203,53,o),
(2203,47,cs),
(2203,-27,o),
(2164,-82,o),
(2110,-82,cs),
(2084,-82,o),
(2067,-72,o),
(2067,-53,cs),
(2067,-41,o),
(2077,-34,o),
(2089,-34,cs),
(2102,-34,o),
(2106,-42,o),
(2118,-42,cs),
(2129,-42,o),
(2133,-34,o),
(2133,-24,cs),
(2133,-4,o),
(2109,41,o),
(2038,41,cs),
(1984,41,o),
(1956,5,o),
(1956,-37,cs),
(1956,-97,o),
(2017,-145,o),
(2089,-145,cs),
(2157,-145,o),
(2209,-127,o),
(2248,-82,cs),
(2283,-42,o),
(2295,14,o),
(2295,163,c),
(2295,163,o),
(2295,165,o),
(2295,328,c)
);
},
{
closed = 1;
nodes = (
(2496,396,o),
(2476,385,o),
(2461,380,c),
(2436,395,l),
(2366,390,l),
(2371,343,l),
(2371,37,l),
(2355,-57,l),
(2409,-57,ls),
(2431,-57,o),
(2466,-45,o),
(2466,37,cs),
(2466,78,l),
(2478,74,o),
(2502,68,o),
(2528,68,cs),
(2616,68,o),
(2671,135,o),
(2671,246,cs),
(2671,347,o),
(2613,396,o),
(2537,396,cs)
);
},
{
closed = 1;
nodes = (
(2531,141,o),
(2488,139,o),
(2466,161,c),
(2466,305,l),
(2485,319,o),
(2498,328,o),
(2498,328,c),
(2535,328,o),
(2568,279,o),
(2568,231,cs),
(2568,177,o),
(2552,154,o),
(2539,141,c)
);
},
{
closed = 1;
nodes = (
(2182,490,o),
(2184,533,o),
(2173,551,c),
(2068,535,l),
(1967,535,o),
(1835,546,o),
(1751,546,cs),
(1709,546,o),
(1680,539,o),
(1664,506,cs),
(1655,490,o),
(1654,467,o),
(1632,445,cs),
(1614,427,o),
(1606,394,o),
(1606,362,cs),
(1606,311,o),
(1636,287,o),
(1675,287,c),
(1675,287,o),
(1727,287,o),
(1738,343,c),
(1711,358,o),
(1693,376,o),
(1693,376,c),
(1675,394,o),
(1660,415,o),
(1660,432,c),
(1671,449,o),
(1704,457,o),
(1704,457,c),
(1750,469,o),
(1805,463,o),
(1840,463,c),
(1840,457,l),
(1832,449,o),
(1814,432,o),
(1814,394,c),
(1814,394,o),
(1814,330,o),
(1814,125,c),
(1809,78,l),
(1932,78,l),
(1919,141,l),
(1919,405,o),
(1919,457,o),
(1919,457,c),
(1943,457,o),
(2046,444,o),
(2104,444,cs),
(2144,444,o),
(2160,458,o),
(2171,474,cs)
);
},
{
closed = 1;
nodes = (
(2992,166,l),
(2907,141,l),
(2854,141,o),
(2808,177,o),
(2808,243,c),
(2808,243,o),
(2808,310,o),
(2841,328,c),
(2861,328,o),
(2897,317,o),
(2906,274,c),
(2868,230,ls),
(2863,224,o),
(2865,218,o),
(2877,218,c),
(2877,218,o),
(2912,218,o),
(3004,218,c),
(3004,265,o),
(3004,304,o),
(2981,344,cs),
(2960,382,o),
(2911,400,o),
(2861,400,cs),
(2782,400,o),
(2710,343,o),
(2710,235,cs),
(2710,125,o),
(2775,68,o),
(2892,68,cs),
(2956,68,o),
(2983,75,o),
(2992,78,c)
);
},
{
closed = 1;
nodes = (
(1559,270,o),
(1565,295,o),
(1573,314,c),
(1573,314,l),
(1573,315,l),
(1574,317,o),
(1575,319,o),
(1576,321,cs),
(1589,351,o),
(1586,372,o),
(1581,394,c),
(1571,390,o),
(1562,385,o),
(1550,379,cs),
(1502,357,o),
(1461,311,o),
(1461,234,cs),
(1461,125,o),
(1517,68,o),
(1619,68,cs),
(1660,68,o),
(1708,75,o),
(1715,78,c),
(1715,161,l),
(1652,141,l),
(1602,141,o),
(1559,178,o),
(1559,240,cs)
);
},
{
closed = 1;
nodes = (
(605,402,l),
(605,402,o),
(605,437,o),
(605,501,c),
(491,491,l),
(396,267,l),
(314,440,l),
(314,500,l),
(212,504,o),
(157,504,o),
(157,504,c),
(115,505,o),
(86,497,o),
(70,465,cs),
(61,448,o),
(51,427,o),
(29,406,cs),
(6,383,o),
(0,356,o),
(0,336,cs),
(0,301,o),
(23,275,o),
(64,275,c),
(64,275,o),
(118,275,o),
(119,343,c),
(88,343,o),
(72,360,o),
(72,360,c),
(57,374,o),
(56,387,o),
(56,390,c),
(67,406,o),
(100,416,o),
(100,416,c),
(128,424,o),
(180,422,o),
(201,422,c),
(201,417,l),
(197,414,o),
(190,398,o),
(190,381,c),
(190,381,o),
(190,355,o),
(190,125,c),
(185,78,l),
(271,78,l),
(257,141,l),
(257,328,l),
(262,328,l),
(381,78,l),
(432,141,l),
(496,355,l),
(501,355,l),
(501,125,l),
(496,78,l),
(621,78,l),
(605,141,l)
);
},
{
closed = 1;
nodes = (
(939,265,ls),
(939,362,o),
(905,395,o),
(819,395,cs),
(810,395,o),
(750,395,o),
(738,395,c),
(684,343,l),
(679,310,o),
(700,289,o),
(700,289,c),
(700,289,o),
(721,268,o),
(777,279,c),
(777,343,l),
(806,343,o),
(845,337,o),
(845,265,cs),
(845,254,o),
(845,250,o),
(845,250,c),
(788,250,o),
(724,230,o),
(693,198,cs),
(675,181,o),
(667,160,o),
(667,141,cs),
(667,97,o),
(697,68,o),
(766,68,c),
(854,111,l),
(858,91,o),
(869,78,o),
(891,78,c),
(891,78,o),
(901,78,o),
(954,78,c),
(939,141,l)
);
},
{
closed = 1;
nodes = (
(837,148,o),
(814,141,o),
(797,141,cs),
(777,141,o),
(764,153,o),
(764,171,cs),
(764,183,o),
(768,194,o),
(778,203,c),
(845,193,l),
(845,193,o),
(845,159,o),
(845,156,c)
);
},
{
closed = 1;
nodes = (
(1079,130,o),
(1071,140,o),
(1071,154,cs),
(1071,168,o),
(1083,179,o),
(1113,179,cs),
(1154,179,o),
(1193,190,o),
(1219,213,cs),
(1239,231,o),
(1256,258,o),
(1256,300,cs),
(1256,383,o),
(1193,400,o),
(1144,400,cs),
(1126,400,o),
(1073,400,o),
(1057,400,c),
(992,356,o),
(992,301,o),
(992,301,c),
(992,246,o),
(1013,224,o),
(1036,201,c),
(1025,190,o),
(1006,172,o),
(1006,151,cs),
(1006,130,o),
(1020,117,o),
(1037,100,cs),
(1048,89,o),
(1050,73,o),
(1039,63,cs),
(1020,43,o),
(976,26,o),
(976,-6,cs),
(976,-52,o),
(1032,-80,o),
(1115,-80,cs),
(1206,-80,o),
(1281,-37,o),
(1281,42,cs),
(1281,114,o),
(1217,130,o),
(1142,130,cs)
);
},
{
closed = 1;
nodes = (
(1078,328,l),
(1109,359,o),
(1158,342,o),
(1158,287,cs),
(1158,258,o),
(1146,246,o),
(1134,234,c),
(1110,234,o),
(1078,271,o),
(1078,322,cs)
);
},
{
closed = 1;
nodes = (
(1089,0,o),
(1071,19,o),
(1071,43,c),
(1071,43,o),
(1071,64,o),
(1080,79,c),
(1118,79,o),
(1166,52,o),
(1166,26,cs),
(1166,9,o),
(1150,0,o),
(1118,0,cs)
);
},
{
closed = 1;
nodes = (
(1408,395,l),
(1373,374,o),
(1315,382,o),
(1309,382,c),
(1314,347,l),
(1314,125,l),
(1309,78,l),
(1424,78,l),
(1408,141,l)
);
},
{
closed = 1;
nodes = (
(1337,586,o),
(1289,574,o),
(1263,553,cs),
(1229,525,o),
(1213,488,o),
(1221,447,cs),
(1226,420,o),
(1251,413,o),
(1251,425,cs),
(1251,474,o),
(1281,496,o),
(1307,496,cs),
(1324,497,o),
(1325,489,o),
(1319,483,cs),
(1304,467,o),
(1319,431,o),
(1364,431,cs),
(1403,431,o),
(1432,458,o),
(1432,501,cs),
(1432,532,o),
(1416,561,o),
(1379,573,cs)
);
}
);
width = 3004;
}
);
note = m;
unicode = 109;
},
{
glyphname = t;
layers = (
{
hints = (
{
horizontal = 1;
place = (-26,652);
type = Stem;
},
{
place = (100,802);
type = Stem;
}
);
layerId = m01;
shapes = (
{
closed = 1;
nodes = (
(873,536,o),
(841,527,o),
(808,523,c),
(842,544,o),
(868,576,o),
(880,614,c),
(848,595,o),
(813,582,o),
(775,574,c),
(745,606,o),
(703,626,o),
(655,626,cs),
(564,626,o),
(491,553,o),
(491,462,cs),
(491,449,o),
(492,436,o),
(495,424,c),
(358,431,o),
(237,497,o),
(156,596,c),
(142,572,o),
(134,544,o),
(134,514,cs),
(134,456,o),
(163,406,o),
(207,377,c),
(180,377,o),
(154,385,o),
(132,397,c),
(132,396,o),
(132,396,o),
(132,395,cs),
(132,315,o),
(189,249,o),
(264,234,c),
(250,230,o),
(236,228,o),
(221,228,cs),
(210,228,o),
(200,229,o),
(190,231,c),
(211,165,o),
(272,118,o),
(344,117,c),
(287,72,o),
(216,46,o),
(139,46,cs),
(126,46,o),
(113,47,o),
(100,48,c),
(173,2,o),
(259,-26,o),
(352,-26,cs),
(655,-26,o),
(821,225,o),
(821,443,cs),
(821,450,o),
(820,457,o),
(820,464,c),
(852,487,o),
(880,516,o),
(902,549,c)
);
}
);
width = 1002;
}
);
note = t;
unicode = 116;
},
{
glyphname = y;
layers = (
{
hints = (
{
horizontal = 1;
place = (566,116);
type = Stem;
},
{
horizontal = 1;
place = (562,131);
type = Stem;
},
{
horizontal = 1;
place = (436,56);
type = Stem;
},
{
horizontal = 1;
place = (379,64);
type = Stem;
},
{
horizontal = 1;
place = (347,219);
type = Stem;
},
{
horizontal = 1;
place = (295,85);
type = Stem;
},
{
horizontal = 1;
place = (195,45);
type = Stem;
},
{
horizontal = 1;
place = (65,57);
type = Stem;
},
{
horizontal = 1;
place = (59,62);
type = Stem;
},
{
horizontal = 1;
place = (-71,136);
type = Stem;
},
{
place = (1865,93);
type = Stem;
},
{
place = (1732,63);
type = Stem;
},
{
place = (1617,44);
type = Stem;
},
{
place = (1483,63);
type = Stem;
},
{
place = (1361,55);
type = Stem;
},
{
place = (1235,55);
type = Stem;
},
{
place = (1094,70);
type = Stem;
},
{
place = (850,169);
type = Stem;
},
{
place = (723,70);
type = Stem;
},
{
place = (597,70);
type = Stem;
},
{
place = (474,71);
type = Stem;
},
{
place = (344,71);
type = Stem;
},
{
place = (192,74);
type = Stem;
}
);
layerId = m01;
shapes = (
{
closed = 1;
nodes = (
(1547,333,ls),
(1547,370,o),
(1538,381,o),
(1519,381,cs),
(1508,381,o),
(1495,375,o),
(1484,364,c),
(1484,139,l),
(1495,128,o),
(1508,122,o),
(1519,122,cs),
(1538,122,o),
(1547,136,o),
(1547,173,cs)
);
},
{
closed = 1;
nodes = (
(1795,336,ls),
(1795,371,o),
(1786,381,o),
(1764,381,cs),
(1742,381,o),
(1732,371,o),
(1732,337,cs),
(1732,296,l),
(1795,296,l)
);
},
{
closed = 1;
nodes = (
(475,177,l),
(478,140,o),
(467,122,o),
(445,122,cs),
(423,122,o),
(412,140,o),
(415,177,c),
(415,325,l),
(412,363,o),
(423,380,o),
(445,380,cs),
(467,380,o),
(478,363,o),
(475,325,c)
);
},
{
closed = 1;
nodes = (
(1094,492,l),
(1094,66,l),
(1020,66,l),
(1020,492,l),
(942,492,l),
(942,563,l),
(1176,563,l),
(1176,492,l)
);
},
{
closed = 1;
nodes = (
(1291,66,l),
(1291,107,l),
(1264,76,o),
(1241,60,o),
(1217,60,cs),
(1195,60,o),
(1180,71,o),
(1172,89,cs),
(1168,100,o),
(1165,118,o),
(1165,144,cs),
(1165,437,l),
(1235,437,l),
(1235,162,ls),
(1235,146,o),
(1235,140,o),
(1235,136,c),
(1237,126,o),
(1241,122,o),
(1250,122,cs),
(1264,122,o),
(1276,134,o),
(1291,155,c),
(1291,437,l),
(1361,437,l),
(1361,66,l)
);
},
{
closed = 1;
nodes = (
(1617,143,o),
(1615,119,o),
(1610,103,cs),
(1601,75,o),
(1581,61,o),
(1555,61,cs),
(1531,61,o),
(1506,75,o),
(1484,103,c),
(1484,66,l),
(1417,66,l),
(1417,563,l),
(1484,563,l),
(1484,401,l),
(1505,428,o),
(1530,443,o),
(1555,443,cs),
(1581,443,o),
(1599,427,o),
(1608,400,cs),
(1613,385,o),
(1617,361,o),
(1617,325,cs),
(1617,177,ls)
);
},
{
closed = 1;
nodes = (
(1732,240,l),
(1732,174,ls),
(1732,139,o),
(1742,122,o),
(1765,122,cs),
(1781,122,o),
(1791,131,o),
(1795,149,cs),
(1796,153,o),
(1795,169,o),
(1795,196,c),
(1866,196,l),
(1866,185,ls),
(1866,163,o),
(1864,148,o),
(1863,141,cs),
(1861,126,o),
(1856,113,o),
(1848,101,cs),
(1829,74,o),
(1802,61,o),
(1766,61,cs),
(1731,61,o),
(1705,74,o),
(1685,99,cs),
(1671,118,o),
(1662,145,o),
(1662,185,cs),
(1662,314,ls),
(1662,354,o),
(1670,385,o),
(1684,403,cs),
(1704,429,o),
(1730,442,o),
(1765,442,cs),
(1798,442,o),
(1825,429,o),
(1844,403,cs),
(1858,385,o),
(1866,356,o),
(1866,316,cs),
(1866,240,l)
);
},
{
closed = 1;
nodes = (
(282,567,l),
(230,371,l),
(178,567,l),
(100,567,l),
(100,567,o),
(116,520,o),
(193,270,c),
(193,66,l),
(267,66,l),
(267,270,l),
(360,567,l)
);
},
{
closed = 1;
nodes = (
(545,318,ls),
(545,358,o),
(537,388,o),
(523,407,cs),
(504,433,o),
(475,443,o),
(445,443,cs),
(411,443,o),
(386,433,o),
(367,407,cs),
(353,388,o),
(345,358,o),
(345,318,cs),
(345,185,ls),
(345,145,o),
(352,117,o),
(366,98,cs),
(385,73,o),
(415,59,o),
(445,59,cs),
(475,59,o),
(505,73,o),
(524,98,cs),
(538,117,o),
(545,145,o),
(545,185,cs)
);
},
{
closed = 1;
nodes = (
(794,441,l),
(723,441,l),
(723,155,l),
(708,134,o),
(696,122,o),
(683,122,cs),
(674,122,o),
(669,126,o),
(668,136,cs),
(668,140,o),
(668,146,o),
(668,162,cs),
(668,441,l),
(597,441,l),
(597,144,ls),
(597,118,o),
(600,100,o),
(605,89,cs),
(612,71,o),
(627,60,o),
(649,60,cs),
(674,60,o),
(696,76,o),
(723,107,c),
(723,66,l),
(794,66,l)
);
},
{
closed = 1;
nodes = (
(1959,348,l),
(1959,348,o),
(1959,437,o),
(1948,526,cs),
(1937,602,o),
(1903,636,o),
(1903,636,c),
(1861,680,o),
(1814,680,o),
(1793,682,c),
(1793,682,o),
(1637,693,o),
(1405,693,cs),
(1404,693,ls),
(1172,693,o),
(1017,682,o),
(1017,682,c),
(995,680,o),
(948,680,o),
(906,636,c),
(906,636,o),
(872,602,o),
(862,526,cs),
(850,437,o),
(851,348,o),
(851,348,c),
(851,264,l),
(851,264,o),
(850,175,o),
(862,86,cs),
(872,9,o),
(906,-24,o),
(906,-24,c),
(948,-68,o),
(1003,-66,o),
(1028,-71,c),
(1028,-71,o),
(1117,-81,o),
(1405,-82,cs),
(1637,-83,o),
(1793,-71,o),
(1793,-71,c),
(1814,-68,o),
(1861,-68,o),
(1903,-24,c),
(1903,-24,o),
(1937,9,o),
(1948,86,cs),
(1959,175,o),
(1959,264,o),
(1959,264,c)
);
}
);
width = 2059;
}
);
note = y;
unicode = 121;
},
{
glyphname = z;
lastChange = "2024-07-13 08:38:30 +0000";
layers = (
{
hints = (
{
horizontal = 1;
place = (610,36);
type = Stem;
},
{
horizontal = 1;
place = (561,24);
type = Stem;
},
{
horizontal = 1;
place = (524,92);
type = Stem;
},
{
horizontal = 1;
place = (494,91);
type = Stem;
},
{
horizontal = 1;
place = (467,58);
type = Stem;
},
{
horizontal = 1;
place = (464,91);
type = Stem;
},
{
horizontal = 1;
place = (434,30);
type = Stem;
},
{
horizontal = 1;
place = (427,34);
type = Stem;
},
{
horizontal = 1;
place = (391,164);
type = Stem;
},
{
horizontal = 1;
place = (391,73);
type = Stem;
},
{
horizontal = 1;
place = (391,64);
type = Stem;
},
{
horizontal = 1;
place = (349,115);
type = Stem;
},
{
horizontal = 1;
place = (327,10);
type = Stem;
},
{
horizontal = 1;
place = (283,181);
type = Stem;
},
{
horizontal = 1;
place = (276,188);
type = Stem;
},
{
horizontal = 1;
place = (224,125);
type = Stem;
},
{
horizontal = 1;
place = (137,139);
type = Stem;
},
{
horizontal = 1;
place = (75,137);
type = Stem;
},
{
horizontal = 1;
place = (75,34);
type = Stem;
},
{
horizontal = 1;
place = (39,73);
type = Stem;
},
{
horizontal = 1;
place = (39,38);
type = Stem;
},
{
horizontal = 1;
place = (-48,30);
type = Stem;
},
{
place = (4406,110);
type = Stem;
},
{
place = (4224,109);
type = Stem;
},
{
place = (4066,116);
type = Stem;
},
{
place = (4066,110);
type = Stem;
},
{
place = (3896,110);
type = Stem;
},
{
place = (3738,110);
type = Stem;
},
{
place = (3556,110);
type = Stem;
},
{
place = (3404,110);
type = Stem;
},
{
place = (3253,109);
type = Stem;
},
{
place = (3071,109);
type = Stem;
},
{
place = (2919,109);
type = Stem;
},
{
place = (2737,109);
type = Stem;
},
{
place = (2433,109);
type = Stem;
},
{
place = (2180,81);
type = Stem;
},
{
place = (2040,80);
type = Stem;
},
{
place = (1907,79);
type = Stem;
},
{
place = (1844,99);
type = Stem;
},
{
place = (1795,80);
type = Stem;
},
{
place = (1524,109);
type = Stem;
},
{
place = (1372,109);
type = Stem;
},
{
place = (1190,109);
type = Stem;
},
{
place = (1008,109);
type = Stem;
},
{
place = (710,79);
type = Stem;
},
{
place = (583,109);
type = Stem;
},
{
place = (401,109);
type = Stem;
},
{
place = (249,109);
type = Stem;
},
{
place = (134,79);
type = Stem;
},
{
place = (6,109);
type = Stem;
}
);
layerId = m01;
shapes = (
{
closed = 1;
nodes = (
(5524,704,l),
(5635,704,l),
(5635,594,l),
(5524,594,l)
);
},
{
closed = 1;
nodes = (
(5524,519,l),
(5635,519,l),
(5635,0,l),
(5524,0,l)
);
},
{
closed = 1;
nodes = (
(2899,0,l),
(3010,0,l),
(3010,390,l),
(3010,426,l),
(3017,426,l),
(3173,149,l),
(3180,149,l),
(3336,426,l),
(3345,426,l),
(3345,0,l),
(3454,0,l),
(3454,426,l),
(3454,519,l),
(3454,631,l),
(3336,631,l),
(3178,353,l),
(3017,631,l),
(3010,631,l),
(2982,631,l),
(2899,631,l)
);
},
{
closed = 1;
nodes = (
(5412,463,o),
(5357,519,o),
(5228,519,c),
(5172,519,o),
(5124,508,o),
(5099,501,c),
(5099,397,l),
(5127,414,o),
(5184,426,o),
(5228,426,c),
(5283,426,o),
(5302,408,o),
(5302,353,c),
(5302,296,l),
(5302,149,l),
(5302,68,o),
(5302,31,o),
(5320,14,c),
(5335,0,o),
(5362,0,o),
(5412,0,c),
(5449,0,l),
(5449,92,l),
(5412,92,o),
(5412,92,o),
(5412,149,c),
(5412,296,l),
(5412,353,l)
);
},
{
closed = 1;
nodes = (
(5133,315,o),
(5079,278,o),
(5079,167,c),
(5079,149,l),
(5079,37,o),
(5116,0,o),
(5208,0,c),
(5240,0,o),
(5261,9,o),
(5265,11,c),
(5283,104,l),
(5276,97,o),
(5264,92,o),
(5245,92,c),
(5208,92,o),
(5190,112,o),
(5190,149,c),
(5190,167,l),
(5190,204,o),
(5208,224,o),
(5245,224,c),
(5265,224,l),
(5265,315,l),
(5245,315,l)
);
},
{
closed = 1;
nodes = (
(3782,149,l),
(3782,68,o),
(3782,31,o),
(3800,14,c),
(3814,0,o),
(3843,0,o),
(3892,0,c),
(3930,0,l),
(3930,92,l),
(3892,92,o),
(3892,92,o),
(3892,149,c),
(3892,519,l),
(3782,519,l)
);
},
{
closed = 1;
nodes = (
(3560,149,l),
(3560,37,o),
(3596,0,o),
(3689,0,c),
(3721,0,o),
(3742,9,o),
(3745,11,c),
(3763,104,l),
(3757,97,o),
(3744,92,o),
(3726,92,c),
(3689,92,o),
(3670,112,o),
(3670,149,c),
(3670,186,l),
(3670,204,l),
(3670,519,l),
(3560,519,l),
(3560,204,l),
(3560,186,l)
);
},
{
closed = 1;
nodes = (
(4672,631,l),
(4783,631,l),
(4783,92,l),
(4838,92,l),
(4875,92,o),
(4894,112,o),
(4894,149,c),
(4894,296,l),
(4894,333,l),
(4894,370,l),
(4894,408,o),
(4875,426,o),
(4838,426,c),
(4823,426,o),
(4813,422,o),
(4801,414,c),
(4820,508,l),
(4831,511,o),
(4860,519,o),
(4894,519,c),
(4967,519,o),
(5004,482,o),
(5004,370,c),
(5004,333,l),
(5004,296,l),
(5004,149,l),
(5004,37,o),
(4949,0,o),
(4838,0,c),
(4783,0,l),
(4746,0,o),
(4699,4,o),
(4672,11,c)
);
},
{
closed = 1;
nodes = (
(4004,370,l),
(4004,0,l),
(4115,0,l),
(4115,370,l),
(4096,519,l),
(4004,519,l)
);
},
{
closed = 1;
nodes = (
(4227,0,l),
(4337,0,l),
(4337,296,l),
(4337,370,l),
(4337,482,o),
(4301,519,o),
(4227,519,c),
(4193,519,o),
(4163,511,o),
(4152,508,c),
(4133,414,l),
(4145,422,o),
(4156,426,o),
(4171,426,c),
(4208,426,o),
(4227,408,o),
(4227,370,c),
(4227,296,l)
);
},
{
closed = 1;
nodes = (
(4522,519,o),
(4561,482,o),
(4561,370,c),
(4561,296,l),
(4561,0,l),
(4449,0,l),
(4449,296,l),
(4449,370,l),
(4449,408,o),
(4430,426,o),
(4393,426,c),
(4380,426,o),
(4368,422,o),
(4356,414,c),
(4375,508,l),
(4386,511,o),
(4414,519,o),
(4449,519,c)
);
},
{
closed = 1;
nodes = (
(1594,631,l),
(1706,631,l),
(1706,149,l),
(1706,92,o),
(1706,92,o),
(1742,92,c),
(1779,92,l),
(1779,0,l),
(1706,0,l),
(1655,0,o),
(1629,0,o),
(1612,14,c),
(1594,31,o),
(1594,68,o),
(1594,149,c)
);
},
{
closed = 1;
nodes = (
(1835,519,o),
(1779,463,o),
(1779,390,c),
(1779,286,o),
(1862,248,o),
(1916,225,cs),
(1928,220,ls),
(1981,197,o),
(2002,173,o),
(2002,141,c),
(2002,112,o),
(1975,92,o),
(1947,92,c),
(1910,92,o),
(1872,104,o),
(1835,129,c),
(1835,17,l),
(1860,7,o),
(1898,0,o),
(1947,0,c),
(2050,0,o),
(2113,55,o),
(2113,141,c),
(2113,245,o),
(2037,282,o),
(1979,308,c),
(1923,333,o),
(1891,353,o),
(1891,390,c),
(1891,408,o),
(1905,426,o),
(1928,426,c),
(1928,482,l),
(1928,519,l)
);
},
{
closed = 1;
nodes = (
(2024,519,o),
(2076,508,o),
(2095,501,c),
(2095,390,l),
(2069,408,o),
(2002,426,o),
(1964,426,c),
(1964,482,l),
(1964,519,l)
);
},
{
closed = 1;
nodes = (
(798,519,o),
(741,463,o),
(741,370,c),
(741,149,l),
(741,55,o),
(798,0,o),
(889,0,c),
(889,37,l),
(889,92,l),
(871,92,o),
(853,112,o),
(853,149,c),
(853,370,l),
(853,408,o),
(871,426,o),
(889,426,c),
(889,482,l),
(889,519,l)
);
},
{
closed = 1;
nodes = (
(1076,463,o),
(1019,519,o),
(927,519,c),
(927,482,l),
(927,426,l),
(944,426,o),
(964,408,o),
(964,370,c),
(964,333,l),
(1076,333,l),
(1076,370,l)
);
},
{
closed = 1;
nodes = (
(1076,186,l),
(964,186,l),
(964,149,l),
(964,112,o),
(944,92,o),
(927,92,c),
(927,37,l),
(927,0,l),
(1019,0,o),
(1076,55,o),
(1076,149,c)
);
},
{
closed = 1;
nodes = (
(1427,519,o),
(1482,463,o),
(1482,353,c),
(1482,296,l),
(1482,149,l),
(1482,92,o),
(1482,92,o),
(1521,92,c),
(1521,0,l),
(1482,0,l),
(1433,0,o),
(1405,0,o),
(1390,14,c),
(1371,31,o),
(1371,68,o),
(1371,149,c),
(1371,296,l),
(1371,353,l),
(1371,408,o),
(1353,426,o),
(1297,426,c),
(1253,426,o),
(1197,414,o),
(1168,397,c),
(1168,501,l),
(1194,508,o),
(1242,519,o),
(1297,519,c)
);
},
{
closed = 1;
nodes = (
(1149,278,o),
(1205,315,o),
(1317,315,c),
(1335,315,l),
(1335,224,l),
(1317,224,l),
(1280,224,o),
(1260,204,o),
(1260,167,c),
(1260,149,l),
(1260,112,o),
(1280,92,o),
(1317,92,c),
(1333,92,o),
(1346,97,o),
(1353,104,c),
(1335,11,l),
(1330,9,o),
(1312,0,o),
(1280,0,c),
(1186,0,o),
(1149,37,o),
(1149,149,c),
(1149,167,l)
);
},
{
closed = 1;
nodes = (
(390,519,o),
(333,463,o),
(333,370,c),
(333,149,l),
(333,55,o),
(390,0,o),
(482,0,c),
(482,37,l),
(482,92,l),
(462,92,o),
(445,112,o),
(445,149,c),
(445,370,l),
(445,408,o),
(462,426,o),
(482,426,c),
(482,482,l),
(482,519,l)
);
},
{
closed = 1;
nodes = (
(611,519,o),
(666,463,o),
(666,370,c),
(666,149,l),
(666,55,o),
(611,0,o),
(519,0,c),
(519,37,l),
(519,92,l),
(537,92,o),
(556,112,o),
(556,149,c),
(556,370,l),
(556,408,o),
(537,426,o),
(519,426,c),
(519,519,l)
);
},
{
closed = 1;
nodes = (
(0,0,l),
(258,0,l),
(258,74,l),
(258,112,l),
(112,112,l),
(112,631,l),
(0,631,l)
);
},
{
closed = 1;
nodes = (
(2762,486,o),
(2766,492,o),
(2766,501,c),
(2788,501,l),
(2788,487,o),
(2783,474,o),
(2773,466,c),
(2763,456,o),
(2751,452,o),
(2735,452,c),
(2429,452,l),
(2429,474,l),
(2735,474,l),
(2747,474,o),
(2755,478,o),
(2758,482,c)
);
},
{
closed = 1;
nodes = (
(2438,368,o),
(2456,364,o),
(2473,355,c),
(2489,347,o),
(2500,334,o),
(2511,320,c),
(2520,304,o),
(2524,286,o),
(2524,265,c),
(2524,246,o),
(2520,229,o),
(2511,213,c),
(2500,198,o),
(2489,186,o),
(2473,176,c),
(2456,168,o),
(2438,164,o),
(2417,164,c),
(2395,164,o),
(2376,168,o),
(2360,176,c),
(2344,186,o),
(2331,198,o),
(2322,213,c),
(2313,229,o),
(2310,246,o),
(2310,265,c),
(2310,286,o),
(2313,304,o),
(2322,320,c),
(2331,334,o),
(2344,347,o),
(2360,355,c),
(2376,364,o),
(2395,368,o),
(2417,368,c)
);
},
{
closed = 1;
nodes = (
(2431,190,o),
(2445,193,o),
(2456,199,c),
(2469,205,o),
(2478,214,o),
(2484,226,c),
(2492,237,o),
(2494,251,o),
(2494,265,c),
(2494,282,o),
(2492,294,o),
(2484,306,c),
(2478,317,o),
(2469,326,o),
(2456,332,c),
(2445,338,o),
(2431,343,o),
(2417,343,c),
(2401,343,o),
(2387,338,o),
(2375,332,c),
(2364,326,o),
(2355,317,o),
(2349,306,c),
(2342,294,o),
(2338,282,o),
(2338,265,c),
(2338,251,o),
(2342,237,o),
(2349,226,c),
(2355,214,o),
(2364,205,o),
(2375,199,c),
(2387,193,o),
(2401,190,o),
(2417,190,c)
);
},
{
closed = 1;
nodes = (
(2679,256,l),
(2596,256,l),
(2596,167,l),
(2565,167,l),
(2565,365,l),
(2679,365,l),
(2679,338,l),
(2596,338,l),
(2596,283,l),
(2679,283,l)
);
},
{
closed = 1;
nodes = (
(2261,42,o),
(2264,48,o),
(2269,52,c),
(2273,55,o),
(2280,59,o),
(2291,59,c),
(2599,59,l),
(2599,81,l),
(2291,81,l),
(2277,81,o),
(2264,77,o),
(2253,69,c),
(2245,59,o),
(2240,47,o),
(2240,33,c),
(2261,33,l)
);
}
);
width = 5635;
}
);
note = z;
unicode = 122;
},
{
glyphname = braceleft;
layers = (
{
hints = (
{
horizontal = 1;
place = (652,52);
type = Stem;
},
{
horizontal = 1;
place = (-107,52);
type = Stem;
},
{
place = (99,125);
type = Stem;
}
);
layerId = m01;
shapes = (
{
closed = 1;
nodes = (
(276,-54,l),
(224,-55,o),
(224,-2,o),
(224,-2,c),
(224,-2,o),
(224,50,o),
(224,247,c),
(172,299,l),
(224,351,l),
(224,553,o),
(224,600,o),
(224,600,c),
(224,600,o),
(224,647,o),
(276,652,c),
(276,704,l),
(224,704,ls),
(106,704,o),
(99,590,o),
(99,538,cs),
(99,351,l),
(47,299,l),
(99,247,l),
(99,60,ls),
(99,-2,o),
(104,-106,o),
(224,-106,cs),
(276,-106,l)
);
}
);
width = 364;
}
);
note = braceleft;
unicode = 123;
},
{
glyphname = bar;
layers = (
{
hints = (
{
horizontal = 1;
place = (-107,811);
type = Stem;
},
{
place = (104,125);
type = Stem;
}
);
layerId = m01;
shapes = (
{
closed = 1;
nodes = (
(105,-106,l),
(229,-106,l),
(229,704,l),
(105,704,l)
);
}
);
width = 332;
}
);
note = bar;
unicode = 124;
},
{
glyphname = braceright;
layers = (
{
hints = (
{
horizontal = 1;
place = (652,52);
type = Stem;
},
{
horizontal = 1;
place = (-107,52);
type = Stem;
},
{
place = (140,125);
type = Stem;
}
);
layerId = m01;
shapes = (
{
closed = 1;
nodes = (
(266,351,l),
(266,538,ls),
(266,590,o),
(259,704,o),
(141,704,cs),
(89,704,l),
(89,652,l),
(141,647,o),
(141,600,o),
(141,600,c),
(141,600,o),
(141,553,o),
(141,351,c),
(193,299,l),
(141,247,l),
(141,50,o),
(141,-2,o),
(141,-2,c),
(141,-2,o),
(141,-55,o),
(89,-54,c),
(89,-106,l),
(141,-106,ls),
(261,-106,o),
(266,-2,o),
(266,60,cs),
(266,247,l),
(318,299,l)
);
}
);
width = 364;
}
);
note = braceright;
unicode = 125;
},
{
glyphname = asciitilde;
layers = (
{
hints = (
{
horizontal = 1;
place = (247,104);
type = Stem;
},
{
horizontal = 1;
place = (196,103);
type = Stem;
},
{
place = (104,416);
type = Stem;
}
);
layerId = m01;
shapes = (
{
closed = 1;
nodes = (
(468,352,l),
(471,326,o),
(416,326,o),
(416,326,c),
(355,326,o),
(310,378,o),
(208,378,c),
(208,378,o),
(107,378,o),
(105,274,c),
(156,248,l),
(159,274,o),
(208,274,o),
(208,274,c),
(264,274,o),
(313,222,o),
(416,222,c),
(416,222,o),
(519,222,o),
(520,326,c)
);
}
);
width = 623;
}
);
note = asciitilde;
unicode = 126;
},
{
glyphname = quotesingle;
layers = (
{
hints = (
{
horizontal = 1;
place = (350,250);
type = Stem;
},
{
place = (104,172);
type = Stem;
}
);
layerId = m01;
shapes = (
{
closed = 1;
nodes = (
(276,600,l),
(105,600,l),
(105,549,l),
(156,351,l),
(224,351,l),
(276,548,l)
);
}
);
width = 379;
}
);
note = quotesingle;
unicode = 39;
},
{
glyphname = endash;
layers = (
{
hints = (
{
horizontal = 1;
place = (258,104);
type = Stem;
},
{
place = (101,416);
type = Stem;
}
);
layerId = m01;
shapes = (
{
closed = 1;
nodes = (
(517,362,l),
(102,362,l),
(102,258,l),
(517,258,l)
);
}
);
width = 623;
}
);
note = endash;
unicode = 8211;
},
{
glyphname = grave;
layers = (
{
hints = (
{
horizontal = 1;
place = (350,250);
type = Stem;
},
{
place = (208,68);
type = Stem;
}
);
layerId = m01;
shapes = (
{
closed = 1;
nodes = (
(276,548,l),
(276,600,l),
(105,600,l),
(105,590,l),
(208,351,l),
(276,351,l)
);
}
);
width = 379;
}
);
note = grave;
unicode = 96;
},
{
glyphname = tilde;
layers = (
{
hints = (
{
horizontal = 1;
place = (247,104);
type = Stem;
},
{
horizontal = 1;
place = (196,103);
type = Stem;
},
{
place = (104,416);
type = Stem;
}
);
layerId = m01;
shapes = (
{
closed = 1;
nodes = (
(468,326,l),
(471,300,o),
(416,300,o),
(416,300,c),
(355,300,o),
(310,352,o),
(208,352,c),
(208,352,o),
(107,352,o),
(105,248,c),
(156,222,l),
(159,248,o),
(208,248,o),
(208,248,c),
(264,248,o),
(313,196,o),
(416,196,c),
(416,196,o),
(519,196,o),
(520,300,c)
);
}
);
width = 623;
}
);
note = tilde;
unicode = 732;
},
{
glyphname = emdash;
layers = (
{
hints = (
{
horizontal = 1;
place = (258,104);
type = Stem;
},
{
place = (101,779);
type = Stem;
}
);
layerId = m01;
shapes = (
{
closed = 1;
nodes = (
(881,362,l),
(102,362,l),
(102,258,l),
(881,258,l)
);
}
);
width = 987;
}
);
note = emdash;
unicode = 8212;
},
{
glyphname = trademark;
layers = (
{
hints = (
{
horizontal = 1;
place = (563,37);
type = Stem;
},
{
place = (437,51);
type = Stem;
},
{
place = (258,51);
type = Stem;
},
{
place = (119,52);
type = Stem;
}
);
layerId = m01;
shapes = (
{
closed = 1;
nodes = (
(53,601,l),
(53,563,l),
(119,563,l),
(120,420,l),
(171,420,l),
(171,563,l),
(238,563,l),
(238,601,l)
);
},
{
closed = 1;
nodes = (
(489,601,l),
(441,601,l),
(374,515,l),
(307,604,l),
(255,604,l),
(258,573,l),
(258,420,l),
(292,420,o),
(310,420,o),
(310,420,c),
(310,420,o),
(310,428,o),
(310,529,c),
(313,523,l),
(366,454,l),
(382,454,l),
(434,523,l),
(437,529,l),
(437,420,l),
(489,420,l),
(489,420,l)
);
}
);
width = 540;
}
);
note = trademark;
unicode = 8482;
},
{
glyphname = copyright;
layers = (
{
hints = (
{
horizontal = 1;
place = (532,78);
type = Stem;
},
{
horizontal = 1;
place = (350,90);
type = Stem;
},
{
horizontal = 1;
place = (158,89);
type = Stem;
},
{
horizontal = 1;
place = (-13,78);
type = Stem;
},
{
place = (680,104);
type = Stem;
},
{
place = (307,103);
type = Stem;
},
{
place = (104,104);
type = Stem;
}
);
layerId = m01;
shapes = (
{
closed = 1;
nodes = (
(556,247,l),
(411,247,l),
(411,351,l),
(504,351,l),
(556,346,l),
(556,430,ls),
(556,440,o),
(504,440,o),
(504,440,c),
(504,440,o),
(452,440,o),
(369,440,c),
(369,440,o),
(307,440,o),
(307,388,c),
(307,388,o),
(307,314,o),
(307,211,cs),
(307,159,o),
(369,159,o),
(369,159,c),
(582,159,l)
);
},
{
closed = 1;
nodes = (
(681,65,o),
(567,65,o),
(567,65,c),
(323,65,l),
(323,65,o),
(208,65,o),
(208,169,cs),
(208,429,ls),
(208,533,o),
(323,533,o),
(323,533,c),
(567,533,l),
(567,533,o),
(681,533,o),
(681,429,cs),
(681,169,ls)
);
},
{
closed = 1;
nodes = (
(785,180,o),
(785,223,o),
(785,392,cs),
(785,507,o),
(728,611,o),
(582,611,cs),
(328,611,ls),
(156,611,o),
(105,507,o),
(105,392,cs),
(105,180,ls),
(105,81,o),
(156,-13,o),
(328,-13,cs),
(488,-13,o),
(593,-13,o),
(593,-13,c),
(731,-13,o),
(785,77,o),
(785,180,c)
);
}
);
width = 888;
}
);
note = copyright;
unicode = 169;
},
{
glyphname = SignatureA;
layers = (
{
layerId = m01;
shapes = (
{
closed = 1;
nodes = (
(485,102,l),
(288,112,l),
(277,148,l),
(277,148,o),
(290,166,o),
(467,426,c),
(475,451,l),
(716,122,l),
(716,112,l)
);
},
{
closed = 1;
nodes = (
(550,611,l),
(407,611,l),
(202,306,o),
(181,270,o),
(181,270,c),
(188,252,o),
(219,201,o),
(225,188,c),
(222,183,o),
(221,179,o),
(217,174,c),
(203,171,o),
(154,163,o),
(113,147,c),
(0,49,l),
(26,-3,l),
(922,-3,l),
(948,49,l)
);
}
